<?xml version='1.0' encoding='utf-8'?>
<svg viewBox="0 0 2900 2980" xmlns="http://www.w3.org/2000/svg">
  <defs>
    <circle cx="50" cy="50" r="50" id="pad" />
    <circle cx="80" cy="55" r="20" id="little-hole" />
    <circle cx="30" cy="30" r="30" id="big-hole" />
    <rect x="0" y="50" width="120" height="1" style="fill: black;" id="horizontal-line" />
    <path d="  M 0,50   A 50,50 0 0 0 100,50   Z  " fill="black" id="octave" />
  </defs>
  <style>
    .outline { fill: white; stroke: black; stroke-width: 1.5; }
  </style>
  <svg x="100" y="180">
    <use x="0" y="0" href="#pad" />
    <use x="0" y="120" href="#horizontal-line" />
    <use x="0" y="240" href="#pad" />
    <use x="0" y="360" href="#pad" />
    <use x="0" y="480" href="#pad" />
    <use x="0" y="600" href="#horizontal-line" />
    <use x="0" y="720" href="#pad" />
    <use x="0" y="840" href="#pad" />
    <use x="0" y="960" href="#little-hole" />
    <use x="0" y="960" href="#big-hole" />
    <use x="0" y="1080" href="#little-hole" />
    <use x="0" y="1080" href="#big-hole" />
    <text x="50" y="1220" class="caption" font-size="40" font-family="monospace" text-anchor="middle" dominant-baseline="middle">  C1 </text>
  </svg>
  <svg x="300" y="180">
    <use x="0" y="0" href="#pad" />
    <use x="0" y="120" href="#horizontal-line" />
    <use x="0" y="240" href="#pad" />
    <use x="0" y="360" href="#pad" />
    <use x="0" y="480" href="#pad" />
    <use x="0" y="600" href="#horizontal-line" />
    <use x="0" y="720" href="#pad" />
    <use x="0" y="840" href="#pad" />
    <use x="0" y="960" href="#little-hole" />
    <use x="0" y="960" href="#big-hole" />
    <use x="0" y="1080" href="#little-hole" class="outline" />
    <use x="0" y="1080" href="#big-hole" />
    <text x="50" y="1220" class="caption" font-size="40" font-family="monospace" text-anchor="middle" dominant-baseline="middle">C♯/D♭1</text>
  </svg>
  <svg x="500" y="180">
    <use x="0" y="0" href="#pad" />
    <use x="0" y="120" href="#horizontal-line" />
    <use x="0" y="240" href="#pad" />
    <use x="0" y="360" href="#pad" />
    <use x="0" y="480" href="#pad" />
    <use x="0" y="600" href="#horizontal-line" />
    <use x="0" y="720" href="#pad" />
    <use x="0" y="840" href="#pad" />
    <use x="0" y="960" href="#little-hole" />
    <use x="0" y="960" href="#big-hole" />
    <use x="0" y="1080" href="#little-hole" class="outline" />
    <use x="0" y="1080" href="#big-hole" class="outline" />
    <text x="50" y="1220" class="caption" font-size="40" font-family="monospace" text-anchor="middle" dominant-baseline="middle">  D1 </text>
  </svg>
  <svg x="700" y="180">
    <use x="0" y="0" href="#pad" />
    <use x="0" y="120" href="#horizontal-line" />
    <use x="0" y="240" href="#pad" />
    <use x="0" y="360" href="#pad" />
    <use x="0" y="480" href="#pad" />
    <use x="0" y="600" href="#horizontal-line" />
    <use x="0" y="720" href="#pad" />
    <use x="0" y="840" href="#pad" />
    <use x="0" y="960" href="#little-hole" class="outline" />
    <use x="0" y="960" href="#big-hole" />
    <use x="0" y="1080" href="#little-hole" class="outline" />
    <use x="0" y="1080" href="#big-hole" class="outline" />
    <text x="50" y="1220" class="caption" font-size="40" font-family="monospace" text-anchor="middle" dominant-baseline="middle">D♯/E♭1</text>
  </svg>
  <svg x="900" y="180">
    <use x="0" y="0" href="#pad" />
    <use x="0" y="120" href="#horizontal-line" />
    <use x="0" y="240" href="#pad" />
    <use x="0" y="360" href="#pad" />
    <use x="0" y="480" href="#pad" />
    <use x="0" y="600" href="#horizontal-line" />
    <use x="0" y="720" href="#pad" />
    <use x="0" y="840" href="#pad" />
    <use x="0" y="960" href="#little-hole" class="outline" />
    <use x="0" y="960" href="#big-hole" class="outline" />
    <use x="0" y="1080" href="#little-hole" class="outline" />
    <use x="0" y="1080" href="#big-hole" class="outline" />
    <text x="50" y="1220" class="caption" font-size="40" font-family="monospace" text-anchor="middle" dominant-baseline="middle">  E1 </text>
  </svg>
  <svg x="1100" y="180">
    <use x="0" y="0" href="#pad" />
    <use x="0" y="120" href="#horizontal-line" />
    <use x="0" y="240" href="#pad" />
    <use x="0" y="360" href="#pad" />
    <use x="0" y="480" href="#pad" />
    <use x="0" y="600" href="#horizontal-line" />
    <use x="0" y="720" href="#pad" />
    <use x="0" y="840" href="#pad" class="outline" />
    <use x="0" y="960" href="#little-hole" />
    <use x="0" y="960" href="#big-hole" />
    <use x="0" y="1080" href="#little-hole" />
    <use x="0" y="1080" href="#big-hole" />
    <text x="50" y="1220" class="caption" font-size="40" font-family="monospace" text-anchor="middle" dominant-baseline="middle">  F1 </text>
  </svg>
  <svg x="1300" y="180">
    <use x="0" y="0" href="#pad" />
    <use x="0" y="120" href="#horizontal-line" />
    <use x="0" y="240" href="#pad" />
    <use x="0" y="360" href="#pad" />
    <use x="0" y="480" href="#pad" />
    <use x="0" y="600" href="#horizontal-line" />
    <use x="0" y="720" href="#pad" class="outline" />
    <use x="0" y="840" href="#pad" />
    <use x="0" y="960" href="#little-hole" />
    <use x="0" y="960" href="#big-hole" />
    <use x="0" y="1080" href="#little-hole" class="outline" />
    <use x="0" y="1080" href="#big-hole" class="outline" />
    <text x="50" y="1220" class="caption" font-size="40" font-family="monospace" text-anchor="middle" dominant-baseline="middle">F♯/G♭1</text>
  </svg>
  <svg x="1500" y="180">
    <use x="0" y="0" href="#pad" />
    <use x="0" y="120" href="#horizontal-line" />
    <use x="0" y="240" href="#pad" />
    <use x="0" y="360" href="#pad" />
    <use x="0" y="480" href="#pad" />
    <use x="0" y="600" href="#horizontal-line" />
    <use x="0" y="720" href="#pad" class="outline" />
    <use x="0" y="840" href="#pad" class="outline" />
    <use x="0" y="960" href="#little-hole" class="outline" />
    <use x="0" y="960" href="#big-hole" class="outline" />
    <use x="0" y="1080" href="#little-hole" class="outline" />
    <use x="0" y="1080" href="#big-hole" class="outline" />
    <text x="50" y="1220" class="caption" font-size="40" font-family="monospace" text-anchor="middle" dominant-baseline="middle">  G1 </text>
  </svg>
  <svg x="1700" y="180">
    <use x="0" y="0" href="#pad" />
    <use x="0" y="120" href="#horizontal-line" />
    <use x="0" y="240" href="#pad" />
    <use x="0" y="360" href="#pad" />
    <use x="0" y="480" href="#pad" class="outline" />
    <use x="0" y="600" href="#horizontal-line" />
    <use x="0" y="720" href="#pad" />
    <use x="0" y="840" href="#pad" />
    <use x="0" y="960" href="#little-hole" class="outline" />
    <use x="0" y="960" href="#big-hole" />
    <use x="0" y="1080" href="#little-hole" class="outline" />
    <use x="0" y="1080" href="#big-hole" class="outline" />
    <text x="50" y="1220" class="caption" font-size="40" font-family="monospace" text-anchor="middle" dominant-baseline="middle">G♯/A♭1</text>
  </svg>
  <svg x="1900" y="180">
    <use x="0" y="0" href="#pad" />
    <use x="0" y="120" href="#horizontal-line" />
    <use x="0" y="240" href="#pad" />
    <use x="0" y="360" href="#pad" />
    <use x="0" y="480" href="#pad" class="outline" />
    <use x="0" y="600" href="#horizontal-line" />
    <use x="0" y="720" href="#pad" class="outline" />
    <use x="0" y="840" href="#pad" class="outline" />
    <use x="0" y="960" href="#little-hole" class="outline" />
    <use x="0" y="960" href="#big-hole" class="outline" />
    <use x="0" y="1080" href="#little-hole" class="outline" />
    <use x="0" y="1080" href="#big-hole" class="outline" />
    <text x="50" y="1220" class="caption" font-size="40" font-family="monospace" text-anchor="middle" dominant-baseline="middle">  A1 </text>
  </svg>
  <svg x="2100" y="180">
    <use x="0" y="0" href="#pad" />
    <use x="0" y="120" href="#horizontal-line" />
    <use x="0" y="240" href="#pad" />
    <use x="0" y="360" href="#pad" />
    <use x="0" y="480" href="#pad" class="outline" />
    <use x="0" y="600" href="#horizontal-line" />
    <use x="0" y="720" href="#pad" />
    <use x="0" y="840" href="#pad" class="outline" />
    <use x="0" y="960" href="#little-hole" class="outline" />
    <use x="0" y="960" href="#big-hole" class="outline" />
    <use x="0" y="1080" href="#little-hole" class="outline" />
    <use x="0" y="1080" href="#big-hole" class="outline" />
    <text x="50" y="1220" class="caption" font-size="40" font-family="monospace" text-anchor="middle" dominant-baseline="middle">A♯/B♭1</text>
  </svg>
  <svg x="2300" y="180">
    <use x="0" y="0" href="#pad" />
    <use x="0" y="120" href="#horizontal-line" />
    <use x="0" y="240" href="#pad" />
    <use x="0" y="360" href="#pad" class="outline" />
    <use x="0" y="480" href="#pad" class="outline" />
    <use x="0" y="600" href="#horizontal-line" />
    <use x="0" y="720" href="#pad" class="outline" />
    <use x="0" y="840" href="#pad" class="outline" />
    <use x="0" y="960" href="#little-hole" class="outline" />
    <use x="0" y="960" href="#big-hole" class="outline" />
    <use x="0" y="1080" href="#little-hole" class="outline" />
    <use x="0" y="1080" href="#big-hole" class="outline" />
    <text x="50" y="1220" class="caption" font-size="40" font-family="monospace" text-anchor="middle" dominant-baseline="middle">  B1 </text>
  </svg>
  <svg x="2500" y="180">
    <use x="0" y="0" href="#pad" />
    <use x="0" y="120" href="#horizontal-line" />
    <use x="0" y="240" href="#pad" class="outline" />
    <use x="0" y="360" href="#pad" />
    <use x="0" y="480" href="#pad" class="outline" />
    <use x="0" y="600" href="#horizontal-line" />
    <use x="0" y="720" href="#pad" class="outline" />
    <use x="0" y="840" href="#pad" class="outline" />
    <use x="0" y="960" href="#little-hole" class="outline" />
    <use x="0" y="960" href="#big-hole" class="outline" />
    <use x="0" y="1080" href="#little-hole" class="outline" />
    <use x="0" y="1080" href="#big-hole" class="outline" />
    <text x="50" y="1220" class="caption" font-size="40" font-family="monospace" text-anchor="middle" dominant-baseline="middle">  C2 </text>
  </svg>
  <svg x="2700" y="180">
    <use x="0" y="0" href="#pad" class="outline" />
    <use x="0" y="120" href="#horizontal-line" />
    <use x="0" y="240" href="#pad" />
    <use x="0" y="360" href="#pad" />
    <use x="0" y="480" href="#pad" class="outline" />
    <use x="0" y="600" href="#horizontal-line" />
    <use x="0" y="720" href="#pad" class="outline" />
    <use x="0" y="840" href="#pad" class="outline" />
    <use x="0" y="960" href="#little-hole" class="outline" />
    <use x="0" y="960" href="#big-hole" class="outline" />
    <use x="0" y="1080" href="#little-hole" class="outline" />
    <use x="0" y="1080" href="#big-hole" class="outline" />
    <text x="50" y="1220" class="caption" font-size="40" font-family="monospace" text-anchor="middle" dominant-baseline="middle">C♯/D♭2</text>
  </svg>
  <rect x="100" y="1490" width="2900" height="3" />
  <svg x="100" y="1580">
    <use x="0" y="0" href="#pad" class="outline" />
    <use x="0" y="120" href="#horizontal-line" />
    <use x="0" y="240" href="#pad" class="outline" />
    <use x="0" y="360" href="#pad" />
    <use x="0" y="480" href="#pad" class="outline" />
    <use x="0" y="600" href="#horizontal-line" />
    <use x="0" y="720" href="#pad" class="outline" />
    <use x="0" y="840" href="#pad" class="outline" />
    <use x="0" y="960" href="#little-hole" class="outline" />
    <use x="0" y="960" href="#big-hole" class="outline" />
    <use x="0" y="1080" href="#little-hole" class="outline" />
    <use x="0" y="1080" href="#big-hole" class="outline" />
    <text x="50" y="1220" class="caption" font-size="40" font-family="monospace" text-anchor="middle" dominant-baseline="middle">  D2 </text>
  </svg>
  <svg x="300" y="1580">
    <use x="0" y="0" href="#pad" class="outline" />
    <use x="0" y="120" href="#horizontal-line" />
    <use x="0" y="240" href="#pad" class="outline" />
    <use x="0" y="360" href="#pad" />
    <use x="0" y="480" href="#pad" />
    <use x="0" y="600" href="#horizontal-line" />
    <use x="0" y="720" href="#pad" />
    <use x="0" y="840" href="#pad" />
    <use x="0" y="960" href="#little-hole" />
    <use x="0" y="960" href="#big-hole" />
    <use x="0" y="1080" href="#little-hole" class="outline" />
    <use x="0" y="1080" href="#big-hole" class="outline" />
    <text x="50" y="1220" class="caption" font-size="40" font-family="monospace" text-anchor="middle" dominant-baseline="middle">D♯/E♭2</text>
  </svg>
  <svg x="500" y="1580">
    <use x="0" y="0" href="#pad" class="outline" />
    <use x="0" y="0" href="#octave" />
    <use x="0" y="120" href="#horizontal-line" />
    <use x="0" y="240" href="#pad" />
    <use x="0" y="360" href="#pad" />
    <use x="0" y="480" href="#pad" />
    <use x="0" y="600" href="#horizontal-line" />
    <use x="0" y="720" href="#pad" />
    <use x="0" y="840" href="#pad" />
    <use x="0" y="960" href="#little-hole" class="outline" />
    <use x="0" y="960" href="#big-hole" class="outline" />
    <use x="0" y="1080" href="#little-hole" class="outline" />
    <use x="0" y="1080" href="#big-hole" class="outline" />
    <text x="50" y="1220" class="caption" font-size="40" font-family="monospace" text-anchor="middle" dominant-baseline="middle">  E2 </text>
  </svg>
  <svg x="700" y="1580">
    <use x="0" y="0" href="#pad" class="outline" />
    <use x="0" y="0" href="#octave" />
    <use x="0" y="120" href="#horizontal-line" />
    <use x="0" y="240" href="#pad" />
    <use x="0" y="360" href="#pad" />
    <use x="0" y="480" href="#pad" />
    <use x="0" y="600" href="#horizontal-line" />
    <use x="0" y="720" href="#pad" />
    <use x="0" y="840" href="#pad" class="outline" />
    <use x="0" y="960" href="#little-hole" />
    <use x="0" y="960" href="#big-hole" />
    <use x="0" y="1080" href="#little-hole" class="outline" />
    <use x="0" y="1080" href="#big-hole" class="outline" />
    <text x="50" y="1220" class="caption" font-size="40" font-family="monospace" text-anchor="middle" dominant-baseline="middle">  F2 </text>
  </svg>
  <svg x="900" y="1580">
    <use x="0" y="0" href="#pad" class="outline" />
    <use x="0" y="0" href="#octave" />
    <use x="0" y="120" href="#horizontal-line" />
    <use x="0" y="240" href="#pad" />
    <use x="0" y="360" href="#pad" />
    <use x="0" y="480" href="#pad" />
    <use x="0" y="600" href="#horizontal-line" />
    <use x="0" y="720" href="#pad" class="outline" />
    <use x="0" y="840" href="#pad" />
    <use x="0" y="960" href="#little-hole" class="outline" />
    <use x="0" y="960" href="#big-hole" class="outline" />
    <use x="0" y="1080" href="#little-hole" class="outline" />
    <use x="0" y="1080" href="#big-hole" class="outline" />
    <text x="50" y="1220" class="caption" font-size="40" font-family="monospace" text-anchor="middle" dominant-baseline="middle">F♯/G♭2</text>
  </svg>
  <svg x="1100" y="1580">
    <use x="0" y="0" href="#pad" class="outline" />
    <use x="0" y="0" href="#octave" />
    <use x="0" y="120" href="#horizontal-line" />
    <use x="0" y="240" href="#pad" />
    <use x="0" y="360" href="#pad" />
    <use x="0" y="480" href="#pad" />
    <use x="0" y="600" href="#horizontal-line" />
    <use x="0" y="720" href="#pad" class="outline" />
    <use x="0" y="840" href="#pad" class="outline" />
    <use x="0" y="960" href="#little-hole" class="outline" />
    <use x="0" y="960" href="#big-hole" class="outline" />
    <use x="0" y="1080" href="#little-hole" class="outline" />
    <use x="0" y="1080" href="#big-hole" class="outline" />
    <text x="50" y="1220" class="caption" font-size="40" font-family="monospace" text-anchor="middle" dominant-baseline="middle">  G2 </text>
  </svg>
  <svg x="1300" y="1580">
    <use x="0" y="0" href="#pad" class="outline" />
    <use x="0" y="0" href="#octave" />
    <use x="0" y="120" href="#horizontal-line" />
    <use x="0" y="240" href="#pad" />
    <use x="0" y="360" href="#pad" />
    <use x="0" y="480" href="#pad" class="outline" />
    <use x="0" y="600" href="#horizontal-line" />
    <use x="0" y="720" href="#pad" />
    <use x="0" y="840" href="#pad" class="outline" />
    <use x="0" y="960" href="#little-hole" class="outline" />
    <use x="0" y="960" href="#big-hole" class="outline" />
    <use x="0" y="1080" href="#little-hole" class="outline" />
    <use x="0" y="1080" href="#big-hole" class="outline" />
    <text x="50" y="1220" class="caption" font-size="40" font-family="monospace" text-anchor="middle" dominant-baseline="middle">G♯/A♭2</text>
  </svg>
  <svg x="1500" y="1580">
    <use x="0" y="0" href="#pad" class="outline" />
    <use x="0" y="0" href="#octave" />
    <use x="0" y="120" href="#horizontal-line" />
    <use x="0" y="240" href="#pad" />
    <use x="0" y="360" href="#pad" />
    <use x="0" y="480" href="#pad" class="outline" />
    <use x="0" y="600" href="#horizontal-line" />
    <use x="0" y="720" href="#pad" class="outline" />
    <use x="0" y="840" href="#pad" class="outline" />
    <use x="0" y="960" href="#little-hole" class="outline" />
    <use x="0" y="960" href="#big-hole" class="outline" />
    <use x="0" y="1080" href="#little-hole" class="outline" />
    <use x="0" y="1080" href="#big-hole" class="outline" />
    <text x="50" y="1220" class="caption" font-size="40" font-family="monospace" text-anchor="middle" dominant-baseline="middle">  A2 </text>
  </svg>
  <svg x="1700" y="1580">
    <use x="0" y="0" href="#pad" class="outline" />
    <use x="0" y="0" href="#octave" />
    <use x="0" y="120" href="#horizontal-line" />
    <use x="0" y="240" href="#pad" />
    <use x="0" y="360" href="#pad" />
    <use x="0" y="480" href="#pad" class="outline" />
    <use x="0" y="600" href="#horizontal-line" />
    <use x="0" y="720" href="#pad" class="outline" />
    <use x="0" y="840" href="#pad" />
    <use x="0" y="960" href="#little-hole" />
    <use x="0" y="960" href="#big-hole" />
    <use x="0" y="1080" href="#little-hole" class="outline" />
    <use x="0" y="1080" href="#big-hole" />
    <text x="50" y="1220" class="caption" font-size="40" font-family="monospace" text-anchor="middle" dominant-baseline="middle">A♯/B♭2</text>
  </svg>
  <svg x="1900" y="1580">
    <use x="0" y="0" href="#pad" class="outline" />
    <use x="0" y="0" href="#octave" />
    <use x="0" y="120" href="#horizontal-line" />
    <use x="0" y="240" href="#pad" />
    <use x="0" y="360" href="#pad" />
    <use x="0" y="480" href="#pad" class="outline" />
    <use x="0" y="600" href="#horizontal-line" />
    <use x="0" y="720" href="#pad" />
    <use x="0" y="840" href="#pad" />
    <use x="0" y="960" href="#little-hole" class="outline" />
    <use x="0" y="960" href="#big-hole" class="outline" />
    <use x="0" y="1080" href="#little-hole" class="outline" />
    <use x="0" y="1080" href="#big-hole" class="outline" />
    <text x="50" y="1220" class="caption" font-size="40" font-family="monospace" text-anchor="middle" dominant-baseline="middle">  B2 </text>
  </svg>
  <svg x="2100" y="1580">
    <use x="0" y="0" href="#pad" class="outline" />
    <use x="0" y="0" href="#octave" />
    <use x="0" y="120" href="#horizontal-line" />
    <use x="0" y="240" href="#pad" />
    <use x="0" y="360" href="#pad" class="outline" />
    <use x="0" y="480" href="#pad" class="outline" />
    <use x="0" y="600" href="#horizontal-line" />
    <use x="0" y="720" href="#pad" />
    <use x="0" y="840" href="#pad" />
    <use x="0" y="960" href="#little-hole" class="outline" />
    <use x="0" y="960" href="#big-hole" class="outline" />
    <use x="0" y="1080" href="#little-hole" class="outline" />
    <use x="0" y="1080" href="#big-hole" class="outline" />
    <text x="50" y="1220" class="caption" font-size="40" font-family="monospace" text-anchor="middle" dominant-baseline="middle">  C3 </text>
  </svg>
  <svg x="2300" y="1580">
    <use x="0" y="0" href="#pad" class="outline" />
    <use x="0" y="0" href="#octave" />
    <use x="0" y="120" href="#horizontal-line" />
    <use x="0" y="240" href="#pad" />
    <use x="0" y="360" href="#pad" class="outline" />
    <use x="0" y="480" href="#pad" />
    <use x="0" y="600" href="#horizontal-line" />
    <use x="0" y="720" href="#pad" />
    <use x="0" y="840" href="#pad" class="outline" />
    <use x="0" y="960" href="#little-hole" />
    <use x="0" y="960" href="#big-hole" />
    <use x="0" y="1080" href="#little-hole" class="outline" />
    <use x="0" y="1080" href="#big-hole" class="outline" />
    <text x="50" y="1220" class="caption" font-size="40" font-family="monospace" text-anchor="middle" dominant-baseline="middle">C♯/D♭3</text>
  </svg>
  <svg x="2500" y="1580">
    <use x="0" y="0" href="#pad" class="outline" />
    <use x="0" y="0" href="#octave" />
    <use x="0" y="120" href="#horizontal-line" />
    <use x="0" y="240" href="#pad" />
    <use x="0" y="360" href="#pad" class="outline" />
    <use x="0" y="480" href="#pad" />
    <use x="0" y="600" href="#horizontal-line" />
    <use x="0" y="720" href="#pad" />
    <use x="0" y="840" href="#pad" class="outline" />
    <use x="0" y="960" href="#little-hole" />
    <use x="0" y="960" href="#big-hole" />
    <use x="0" y="1080" href="#little-hole" class="outline" />
    <use x="0" y="1080" href="#big-hole" class="outline" />
    <text x="50" y="1220" class="caption" font-size="40" font-family="monospace" text-anchor="middle" dominant-baseline="middle">  D3 </text>
  </svg>
</svg>
