<?xml version='1.0' encoding='utf-8'?>
<svg viewBox="0 0 3600 3495" xmlns="http://www.w3.org/2000/svg">
  <defs>
    <circle cx="50" cy="50" r="50" id="pad" />
    <circle cx="80" cy="55" r="20" id="little-hole" />
    <circle cx="30" cy="30" r="30" id="big-hole" />
    <rect x="0" y="50" width="120" height="1" style="fill: black;" id="horizontal-line" />
    <path d="  M 0,50   A 50,50 0 0 0 100,50   Z  " fill="black" id="octave" />
  </defs>
  <style>
    .outline { fill: white; stroke: black; stroke-width: 1.5; }
  </style>
  <svg x="10" y="10" class="page">
    <text font-size="100" font-family="monospace" text-anchor="middle" x="1750" y="200">
      Fingering chart for the Baroque family of recorders
</text>
    <svg y="250" class="body">
      <svg x="100" y="180" class="note-fingering">
        <svg x="15" class="pieces">
          <use x="0" y="0" href="#pad" />
          <use x="0" y="120" href="#horizontal-line" />
          <use x="0" y="240" href="#pad" />
          <use x="0" y="360" href="#pad" />
          <use x="0" y="480" href="#pad" />
          <use x="0" y="600" href="#horizontal-line" />
          <use x="0" y="720" href="#pad" />
          <use x="0" y="840" href="#pad" />
          <use x="0" y="960" href="#little-hole" />
          <use x="0" y="960" href="#big-hole" />
          <use x="0" y="1080" href="#little-hole" />
          <use x="0" y="1080" href="#big-hole" />
        </svg>
        <text x="70" font-size="40" font-family="monospace" text-anchor="middle" class="caption" y="1470">  C1  </text>
      </svg>
      <svg x="350" y="180" class="note-fingering">
        <svg x="15" class="pieces">
          <use x="0" y="0" href="#pad" />
          <use x="0" y="120" href="#horizontal-line" />
          <use x="0" y="240" href="#pad" />
          <use x="0" y="360" href="#pad" />
          <use x="0" y="480" href="#pad" />
          <use x="0" y="600" href="#horizontal-line" />
          <use x="0" y="720" href="#pad" />
          <use x="0" y="840" href="#pad" />
          <use x="0" y="960" href="#little-hole" />
          <use x="0" y="960" href="#big-hole" />
          <use x="0" y="1080" href="#little-hole" class="outline" />
          <use x="0" y="1080" href="#big-hole" />
        </svg>
        <text x="70" font-size="40" font-family="monospace" text-anchor="middle" class="caption" y="1470">C♯/D♭1</text>
      </svg>
      <svg x="600" y="180" class="note-fingering">
        <svg x="15" class="pieces">
          <use x="0" y="0" href="#pad" />
          <use x="0" y="120" href="#horizontal-line" />
          <use x="0" y="240" href="#pad" />
          <use x="0" y="360" href="#pad" />
          <use x="0" y="480" href="#pad" />
          <use x="0" y="600" href="#horizontal-line" />
          <use x="0" y="720" href="#pad" />
          <use x="0" y="840" href="#pad" />
          <use x="0" y="960" href="#little-hole" />
          <use x="0" y="960" href="#big-hole" />
          <use x="0" y="1080" href="#little-hole" class="outline" />
          <use x="0" y="1080" href="#big-hole" class="outline" />
        </svg>
        <text x="70" font-size="40" font-family="monospace" text-anchor="middle" class="caption" y="1470">  D1  </text>
      </svg>
      <svg x="850" y="180" class="note-fingering">
        <svg x="15" class="pieces">
          <use x="0" y="0" href="#pad" />
          <use x="0" y="120" href="#horizontal-line" />
          <use x="0" y="240" href="#pad" />
          <use x="0" y="360" href="#pad" />
          <use x="0" y="480" href="#pad" />
          <use x="0" y="600" href="#horizontal-line" />
          <use x="0" y="720" href="#pad" />
          <use x="0" y="840" href="#pad" />
          <use x="0" y="960" href="#little-hole" class="outline" />
          <use x="0" y="960" href="#big-hole" />
          <use x="0" y="1080" href="#little-hole" class="outline" />
          <use x="0" y="1080" href="#big-hole" class="outline" />
        </svg>
        <text x="70" font-size="40" font-family="monospace" text-anchor="middle" class="caption" y="1470">D♯/E♭1</text>
      </svg>
      <svg x="1100" y="180" class="note-fingering">
        <svg x="15" class="pieces">
          <use x="0" y="0" href="#pad" />
          <use x="0" y="120" href="#horizontal-line" />
          <use x="0" y="240" href="#pad" />
          <use x="0" y="360" href="#pad" />
          <use x="0" y="480" href="#pad" />
          <use x="0" y="600" href="#horizontal-line" />
          <use x="0" y="720" href="#pad" />
          <use x="0" y="840" href="#pad" />
          <use x="0" y="960" href="#little-hole" class="outline" />
          <use x="0" y="960" href="#big-hole" class="outline" />
          <use x="0" y="1080" href="#little-hole" class="outline" />
          <use x="0" y="1080" href="#big-hole" class="outline" />
        </svg>
        <text x="70" font-size="40" font-family="monospace" text-anchor="middle" class="caption" y="1470">  E1  </text>
      </svg>
      <svg x="1350" y="180" class="note-fingering">
        <svg x="15" class="pieces">
          <use x="0" y="0" href="#pad" />
          <use x="0" y="120" href="#horizontal-line" />
          <use x="0" y="240" href="#pad" />
          <use x="0" y="360" href="#pad" />
          <use x="0" y="480" href="#pad" />
          <use x="0" y="600" href="#horizontal-line" />
          <use x="0" y="720" href="#pad" />
          <use x="0" y="840" href="#pad" class="outline" />
          <use x="0" y="960" href="#little-hole" />
          <use x="0" y="960" href="#big-hole" />
          <use x="0" y="1080" href="#little-hole" />
          <use x="0" y="1080" href="#big-hole" />
        </svg>
        <text x="70" font-size="40" font-family="monospace" text-anchor="middle" class="caption" y="1470">  F1  </text>
      </svg>
      <svg x="1600" y="180" class="note-fingering">
        <svg x="15" class="pieces">
          <use x="0" y="0" href="#pad" />
          <use x="0" y="120" href="#horizontal-line" />
          <use x="0" y="240" href="#pad" />
          <use x="0" y="360" href="#pad" />
          <use x="0" y="480" href="#pad" />
          <use x="0" y="600" href="#horizontal-line" />
          <use x="0" y="720" href="#pad" class="outline" />
          <use x="0" y="840" href="#pad" />
          <use x="0" y="960" href="#little-hole" />
          <use x="0" y="960" href="#big-hole" />
          <use x="0" y="1080" href="#little-hole" class="outline" />
          <use x="0" y="1080" href="#big-hole" class="outline" />
        </svg>
        <text x="70" font-size="40" font-family="monospace" text-anchor="middle" class="caption" y="1470">F♯/G♭1</text>
      </svg>
      <svg x="1850" y="180" class="note-fingering">
        <svg x="15" class="pieces">
          <use x="0" y="0" href="#pad" />
          <use x="0" y="120" href="#horizontal-line" />
          <use x="0" y="240" href="#pad" />
          <use x="0" y="360" href="#pad" />
          <use x="0" y="480" href="#pad" />
          <use x="0" y="600" href="#horizontal-line" />
          <use x="0" y="720" href="#pad" class="outline" />
          <use x="0" y="840" href="#pad" class="outline" />
          <use x="0" y="960" href="#little-hole" class="outline" />
          <use x="0" y="960" href="#big-hole" class="outline" />
          <use x="0" y="1080" href="#little-hole" class="outline" />
          <use x="0" y="1080" href="#big-hole" class="outline" />
        </svg>
        <text x="70" font-size="40" font-family="monospace" text-anchor="middle" class="caption" y="1470">  G1  </text>
      </svg>
      <svg x="2100" y="180" class="note-fingering">
        <svg x="15" class="pieces">
          <use x="0" y="0" href="#pad" />
          <use x="0" y="120" href="#horizontal-line" />
          <use x="0" y="240" href="#pad" />
          <use x="0" y="360" href="#pad" />
          <use x="0" y="480" href="#pad" class="outline" />
          <use x="0" y="600" href="#horizontal-line" />
          <use x="0" y="720" href="#pad" />
          <use x="0" y="840" href="#pad" />
          <use x="0" y="960" href="#little-hole" class="outline" />
          <use x="0" y="960" href="#big-hole" />
          <use x="0" y="1080" href="#little-hole" class="outline" />
          <use x="0" y="1080" href="#big-hole" class="outline" />
        </svg>
        <text x="70" font-size="40" font-family="monospace" text-anchor="middle" class="caption" y="1470">G♯/A♭1</text>
      </svg>
      <svg x="2350" y="180" class="note-fingering">
        <svg x="15" class="pieces">
          <use x="0" y="0" href="#pad" />
          <use x="0" y="120" href="#horizontal-line" />
          <use x="0" y="240" href="#pad" />
          <use x="0" y="360" href="#pad" />
          <use x="0" y="480" href="#pad" class="outline" />
          <use x="0" y="600" href="#horizontal-line" />
          <use x="0" y="720" href="#pad" class="outline" />
          <use x="0" y="840" href="#pad" class="outline" />
          <use x="0" y="960" href="#little-hole" class="outline" />
          <use x="0" y="960" href="#big-hole" class="outline" />
          <use x="0" y="1080" href="#little-hole" class="outline" />
          <use x="0" y="1080" href="#big-hole" class="outline" />
        </svg>
        <text x="70" font-size="40" font-family="monospace" text-anchor="middle" class="caption" y="1470">  A1  </text>
      </svg>
      <svg x="2600" y="180" class="note-fingering">
        <svg x="15" class="pieces">
          <use x="0" y="0" href="#pad" />
          <use x="0" y="120" href="#horizontal-line" />
          <use x="0" y="240" href="#pad" />
          <use x="0" y="360" href="#pad" />
          <use x="0" y="480" href="#pad" class="outline" />
          <use x="0" y="600" href="#horizontal-line" />
          <use x="0" y="720" href="#pad" />
          <use x="0" y="840" href="#pad" class="outline" />
          <use x="0" y="960" href="#little-hole" class="outline" />
          <use x="0" y="960" href="#big-hole" class="outline" />
          <use x="0" y="1080" href="#little-hole" class="outline" />
          <use x="0" y="1080" href="#big-hole" class="outline" />
        </svg>
        <text x="70" font-size="40" font-family="monospace" text-anchor="middle" class="caption" y="1470">A♯/B♭1</text>
      </svg>
      <svg x="2850" y="180" class="note-fingering">
        <svg x="15" class="pieces">
          <use x="0" y="0" href="#pad" />
          <use x="0" y="120" href="#horizontal-line" />
          <use x="0" y="240" href="#pad" />
          <use x="0" y="360" href="#pad" class="outline" />
          <use x="0" y="480" href="#pad" class="outline" />
          <use x="0" y="600" href="#horizontal-line" />
          <use x="0" y="720" href="#pad" class="outline" />
          <use x="0" y="840" href="#pad" class="outline" />
          <use x="0" y="960" href="#little-hole" class="outline" />
          <use x="0" y="960" href="#big-hole" class="outline" />
          <use x="0" y="1080" href="#little-hole" class="outline" />
          <use x="0" y="1080" href="#big-hole" class="outline" />
        </svg>
        <text x="70" font-size="40" font-family="monospace" text-anchor="middle" class="caption" y="1470">  B1  </text>
      </svg>
      <svg x="3100" y="180" class="note-fingering">
        <svg x="15" class="pieces">
          <use x="0" y="0" href="#pad" />
          <use x="0" y="120" href="#horizontal-line" />
          <use x="0" y="240" href="#pad" class="outline" />
          <use x="0" y="360" href="#pad" />
          <use x="0" y="480" href="#pad" class="outline" />
          <use x="0" y="600" href="#horizontal-line" />
          <use x="0" y="720" href="#pad" class="outline" />
          <use x="0" y="840" href="#pad" class="outline" />
          <use x="0" y="960" href="#little-hole" class="outline" />
          <use x="0" y="960" href="#big-hole" class="outline" />
          <use x="0" y="1080" href="#little-hole" class="outline" />
          <use x="0" y="1080" href="#big-hole" class="outline" />
        </svg>
        <text x="70" font-size="40" font-family="monospace" text-anchor="middle" class="caption" y="1470">  C2  </text>
      </svg>
      <svg x="3350" y="180" class="note-fingering">
        <svg x="15" class="pieces">
          <use x="0" y="0" href="#pad" class="outline" />
          <use x="0" y="120" href="#horizontal-line" />
          <use x="0" y="240" href="#pad" />
          <use x="0" y="360" href="#pad" />
          <use x="0" y="480" href="#pad" class="outline" />
          <use x="0" y="600" href="#horizontal-line" />
          <use x="0" y="720" href="#pad" class="outline" />
          <use x="0" y="840" href="#pad" class="outline" />
          <use x="0" y="960" href="#little-hole" class="outline" />
          <use x="0" y="960" href="#big-hole" class="outline" />
          <use x="0" y="1080" href="#little-hole" class="outline" />
          <use x="0" y="1080" href="#big-hole" class="outline" />
        </svg>
        <text x="70" font-size="40" font-family="monospace" text-anchor="middle" class="caption" y="1470">C♯/D♭2</text>
      </svg>
      <svg x="100" y="1830" class="note-fingering">
        <svg x="15" class="pieces">
          <use x="0" y="0" href="#pad" class="outline" />
          <use x="0" y="120" href="#horizontal-line" />
          <use x="0" y="240" href="#pad" class="outline" />
          <use x="0" y="360" href="#pad" />
          <use x="0" y="480" href="#pad" class="outline" />
          <use x="0" y="600" href="#horizontal-line" />
          <use x="0" y="720" href="#pad" class="outline" />
          <use x="0" y="840" href="#pad" class="outline" />
          <use x="0" y="960" href="#little-hole" class="outline" />
          <use x="0" y="960" href="#big-hole" class="outline" />
          <use x="0" y="1080" href="#little-hole" class="outline" />
          <use x="0" y="1080" href="#big-hole" class="outline" />
        </svg>
        <text x="70" font-size="40" font-family="monospace" text-anchor="middle" class="caption" y="1470">  D2  </text>
      </svg>
      <svg x="350" y="1830" class="note-fingering">
        <svg x="15" class="pieces">
          <use x="0" y="0" href="#pad" class="outline" />
          <use x="0" y="120" href="#horizontal-line" />
          <use x="0" y="240" href="#pad" class="outline" />
          <use x="0" y="360" href="#pad" />
          <use x="0" y="480" href="#pad" />
          <use x="0" y="600" href="#horizontal-line" />
          <use x="0" y="720" href="#pad" />
          <use x="0" y="840" href="#pad" />
          <use x="0" y="960" href="#little-hole" />
          <use x="0" y="960" href="#big-hole" />
          <use x="0" y="1080" href="#little-hole" class="outline" />
          <use x="0" y="1080" href="#big-hole" class="outline" />
        </svg>
        <text x="70" font-size="40" font-family="monospace" text-anchor="middle" class="caption" y="1470">D♯/E♭2</text>
      </svg>
      <svg x="600" y="1830" class="note-fingering">
        <svg x="15" class="pieces">
          <use x="0" y="0" href="#pad" class="outline" />
          <use x="0" y="0" href="#octave" />
          <use x="0" y="120" href="#horizontal-line" />
          <use x="0" y="240" href="#pad" />
          <use x="0" y="360" href="#pad" />
          <use x="0" y="480" href="#pad" />
          <use x="0" y="600" href="#horizontal-line" />
          <use x="0" y="720" href="#pad" />
          <use x="0" y="840" href="#pad" />
          <use x="0" y="960" href="#little-hole" class="outline" />
          <use x="0" y="960" href="#big-hole" class="outline" />
          <use x="0" y="1080" href="#little-hole" class="outline" />
          <use x="0" y="1080" href="#big-hole" class="outline" />
        </svg>
        <text x="70" font-size="40" font-family="monospace" text-anchor="middle" class="caption" y="1470">  E2  </text>
      </svg>
      <svg x="850" y="1830" class="note-fingering">
        <svg x="15" class="pieces">
          <use x="0" y="0" href="#pad" class="outline" />
          <use x="0" y="0" href="#octave" />
          <use x="0" y="120" href="#horizontal-line" />
          <use x="0" y="240" href="#pad" />
          <use x="0" y="360" href="#pad" />
          <use x="0" y="480" href="#pad" />
          <use x="0" y="600" href="#horizontal-line" />
          <use x="0" y="720" href="#pad" />
          <use x="0" y="840" href="#pad" class="outline" />
          <use x="0" y="960" href="#little-hole" />
          <use x="0" y="960" href="#big-hole" />
          <use x="0" y="1080" href="#little-hole" class="outline" />
          <use x="0" y="1080" href="#big-hole" class="outline" />
        </svg>
        <text x="70" font-size="40" font-family="monospace" text-anchor="middle" class="caption" y="1470">  F2  </text>
      </svg>
      <svg x="1100" y="1830" class="note-fingering">
        <svg x="15" class="pieces">
          <use x="0" y="0" href="#pad" class="outline" />
          <use x="0" y="0" href="#octave" />
          <use x="0" y="120" href="#horizontal-line" />
          <use x="0" y="240" href="#pad" />
          <use x="0" y="360" href="#pad" />
          <use x="0" y="480" href="#pad" />
          <use x="0" y="600" href="#horizontal-line" />
          <use x="0" y="720" href="#pad" class="outline" />
          <use x="0" y="840" href="#pad" />
          <use x="0" y="960" href="#little-hole" class="outline" />
          <use x="0" y="960" href="#big-hole" class="outline" />
          <use x="0" y="1080" href="#little-hole" class="outline" />
          <use x="0" y="1080" href="#big-hole" class="outline" />
        </svg>
        <text x="70" font-size="40" font-family="monospace" text-anchor="middle" class="caption" y="1470">F♯/G♭2</text>
      </svg>
      <svg x="1350" y="1830" class="note-fingering">
        <svg x="15" class="pieces">
          <use x="0" y="0" href="#pad" class="outline" />
          <use x="0" y="0" href="#octave" />
          <use x="0" y="120" href="#horizontal-line" />
          <use x="0" y="240" href="#pad" />
          <use x="0" y="360" href="#pad" />
          <use x="0" y="480" href="#pad" />
          <use x="0" y="600" href="#horizontal-line" />
          <use x="0" y="720" href="#pad" class="outline" />
          <use x="0" y="840" href="#pad" class="outline" />
          <use x="0" y="960" href="#little-hole" class="outline" />
          <use x="0" y="960" href="#big-hole" class="outline" />
          <use x="0" y="1080" href="#little-hole" class="outline" />
          <use x="0" y="1080" href="#big-hole" class="outline" />
        </svg>
        <text x="70" font-size="40" font-family="monospace" text-anchor="middle" class="caption" y="1470">  G2  </text>
      </svg>
      <svg x="1600" y="1830" class="note-fingering">
        <svg x="15" class="pieces">
          <use x="0" y="0" href="#pad" class="outline" />
          <use x="0" y="0" href="#octave" />
          <use x="0" y="120" href="#horizontal-line" />
          <use x="0" y="240" href="#pad" />
          <use x="0" y="360" href="#pad" />
          <use x="0" y="480" href="#pad" class="outline" />
          <use x="0" y="600" href="#horizontal-line" />
          <use x="0" y="720" href="#pad" />
          <use x="0" y="840" href="#pad" class="outline" />
          <use x="0" y="960" href="#little-hole" class="outline" />
          <use x="0" y="960" href="#big-hole" class="outline" />
          <use x="0" y="1080" href="#little-hole" class="outline" />
          <use x="0" y="1080" href="#big-hole" class="outline" />
        </svg>
        <text x="70" font-size="40" font-family="monospace" text-anchor="middle" class="caption" y="1470">G♯/A♭2</text>
      </svg>
      <svg x="1850" y="1830" class="note-fingering">
        <svg x="15" class="pieces">
          <use x="0" y="0" href="#pad" class="outline" />
          <use x="0" y="0" href="#octave" />
          <use x="0" y="120" href="#horizontal-line" />
          <use x="0" y="240" href="#pad" />
          <use x="0" y="360" href="#pad" />
          <use x="0" y="480" href="#pad" class="outline" />
          <use x="0" y="600" href="#horizontal-line" />
          <use x="0" y="720" href="#pad" class="outline" />
          <use x="0" y="840" href="#pad" class="outline" />
          <use x="0" y="960" href="#little-hole" class="outline" />
          <use x="0" y="960" href="#big-hole" class="outline" />
          <use x="0" y="1080" href="#little-hole" class="outline" />
          <use x="0" y="1080" href="#big-hole" class="outline" />
        </svg>
        <text x="70" font-size="40" font-family="monospace" text-anchor="middle" class="caption" y="1470">  A2  </text>
      </svg>
      <svg x="2100" y="1830" class="note-fingering">
        <svg x="15" class="pieces">
          <use x="0" y="0" href="#pad" class="outline" />
          <use x="0" y="0" href="#octave" />
          <use x="0" y="120" href="#horizontal-line" />
          <use x="0" y="240" href="#pad" />
          <use x="0" y="360" href="#pad" />
          <use x="0" y="480" href="#pad" class="outline" />
          <use x="0" y="600" href="#horizontal-line" />
          <use x="0" y="720" href="#pad" class="outline" />
          <use x="0" y="840" href="#pad" />
          <use x="0" y="960" href="#little-hole" />
          <use x="0" y="960" href="#big-hole" />
          <use x="0" y="1080" href="#little-hole" class="outline" />
          <use x="0" y="1080" href="#big-hole" />
        </svg>
        <text x="70" font-size="40" font-family="monospace" text-anchor="middle" class="caption" y="1470">A♯/B♭2</text>
      </svg>
      <svg x="2350" y="1830" class="note-fingering">
        <svg x="15" class="pieces">
          <use x="0" y="0" href="#pad" class="outline" />
          <use x="0" y="0" href="#octave" />
          <use x="0" y="120" href="#horizontal-line" />
          <use x="0" y="240" href="#pad" />
          <use x="0" y="360" href="#pad" />
          <use x="0" y="480" href="#pad" class="outline" />
          <use x="0" y="600" href="#horizontal-line" />
          <use x="0" y="720" href="#pad" />
          <use x="0" y="840" href="#pad" />
          <use x="0" y="960" href="#little-hole" class="outline" />
          <use x="0" y="960" href="#big-hole" class="outline" />
          <use x="0" y="1080" href="#little-hole" class="outline" />
          <use x="0" y="1080" href="#big-hole" class="outline" />
        </svg>
        <text x="70" font-size="40" font-family="monospace" text-anchor="middle" class="caption" y="1470">  B2  </text>
      </svg>
      <svg x="2600" y="1830" class="note-fingering">
        <svg x="15" class="pieces">
          <use x="0" y="0" href="#pad" class="outline" />
          <use x="0" y="0" href="#octave" />
          <use x="0" y="120" href="#horizontal-line" />
          <use x="0" y="240" href="#pad" />
          <use x="0" y="360" href="#pad" class="outline" />
          <use x="0" y="480" href="#pad" class="outline" />
          <use x="0" y="600" href="#horizontal-line" />
          <use x="0" y="720" href="#pad" />
          <use x="0" y="840" href="#pad" />
          <use x="0" y="960" href="#little-hole" class="outline" />
          <use x="0" y="960" href="#big-hole" class="outline" />
          <use x="0" y="1080" href="#little-hole" class="outline" />
          <use x="0" y="1080" href="#big-hole" class="outline" />
        </svg>
        <text x="70" font-size="40" font-family="monospace" text-anchor="middle" class="caption" y="1470">  C3  </text>
      </svg>
      <svg x="2850" y="1830" class="note-fingering">
        <svg x="15" class="pieces">
          <use x="0" y="0" href="#pad" class="outline" />
          <use x="0" y="0" href="#octave" />
          <use x="0" y="120" href="#horizontal-line" />
          <use x="0" y="240" href="#pad" />
          <use x="0" y="360" href="#pad" class="outline" />
          <use x="0" y="480" href="#pad" />
          <use x="0" y="600" href="#horizontal-line" />
          <use x="0" y="720" href="#pad" />
          <use x="0" y="840" href="#pad" class="outline" />
          <use x="0" y="960" href="#little-hole" />
          <use x="0" y="960" href="#big-hole" />
          <use x="0" y="1080" href="#little-hole" class="outline" />
          <use x="0" y="1080" href="#big-hole" class="outline" />
        </svg>
        <text x="70" font-size="40" font-family="monospace" text-anchor="middle" class="caption" y="1470">C♯/D♭3</text>
      </svg>
      <svg x="3100" y="1830" class="note-fingering">
        <svg x="15" class="pieces">
          <use x="0" y="0" href="#pad" class="outline" />
          <use x="0" y="0" href="#octave" />
          <use x="0" y="120" href="#horizontal-line" />
          <use x="0" y="240" href="#pad" />
          <use x="0" y="360" href="#pad" class="outline" />
          <use x="0" y="480" href="#pad" />
          <use x="0" y="600" href="#horizontal-line" />
          <use x="0" y="720" href="#pad" />
          <use x="0" y="840" href="#pad" class="outline" />
          <use x="0" y="960" href="#little-hole" />
          <use x="0" y="960" href="#big-hole" />
          <use x="0" y="1080" href="#little-hole" class="outline" />
          <use x="0" y="1080" href="#big-hole" class="outline" />
        </svg>
        <text x="70" font-size="40" font-family="monospace" text-anchor="middle" class="caption" y="1470">  D3  </text>
      </svg>
      <rect y="1740" width="3600" height="3" class="large-separator" />
    </svg>
  </svg>
</svg>
