<?xml version='1.0' encoding='utf-8'?>
<svg viewBox="0 0 2448 3485" xmlns="http://www.w3.org/2000/svg">
  <defs>
    <svg id="copyleft">
      <circle cx="5" cy="5" r="4.49" fill="none" stroke="#000" stroke-width="1" />
      <path d="M 2.23,4.37 H 3.57 a 1.53,1.53 0 1 1 0,1.28 H 2.23 a 2.81,2.81 0 1 0 0-1.28 z" />
    </svg>
    <circle cx="50" cy="50" r="50" id="pad" />
    <circle cx="80" cy="95" r="20" id="little-hole" />
    <circle cx="30" cy="70" r="30" id="big-hole" />
    <rect x="0" y="50" width="120" height="1" style="fill: black;" id="horizontal-line" />
    <path d="  M 0,50   A 50,50 0 0 0 100,50   Z  " fill="black" id="octave" />
  </defs>
  <style>
    .body_background { fill: lightgreen; }
    .chart_background { fill: pink; }
    .note_fingering_background { fill: lightgray; }
    .fingering_background { fill: orange; }
    .outline { fill: white; stroke: black; stroke-width: 1.5; }
    .caption { fill: black; font-size: 40px; font-family: monospace; text-anchor: middle; }
    .page_background { fill: pink; }
  </style>
  <svg class="body" x="30" y="30" width="2388" height="3425">
    <rect class="body_background" width="100%" height="100%" />
    <svg>
      <text font-size="60px" font-family="monospace" text-anchor="middle" x="1200" y="100">
        Fingering chart for the Baroque family of recorders
      </text>
      <text font-size="35px" font-family="monospace" text-anchor="middle" x="1200" y="190">
        Copyleft <tspan fill="transparent">©</tspan> 2026, Tom Ritchford. No rights reserved.
      </text>
      <use href="#copyleft" x="283" y="54" transform="scale(3, 3)" />
    </svg>
    <svg class="chart" x="30" y="250" width="2328" height="1420">
      <rect class="chart_background" width="100%" height="100%" />
      <svg class="note_fingering" x="30" y="30" width="162" height="1360">
        <rect class="note_fingering_background" width="100%" height="100%" />
        <svg class="fingering" x="30" y="100" width="102" height="1200">
          <rect class="fingering_background" width="100%" height="100%" />
          <use x="1" y="1" href="#pad" />
          <use x="1" y="121" href="#horizontal-line" />
          <use x="1" y="241" href="#pad" />
          <use x="1" y="361" href="#pad" />
          <use x="1" y="481" href="#pad" />
          <use x="1" y="601" href="#horizontal-line" />
          <use x="1" y="721" href="#pad" />
          <use x="1" y="841" href="#pad" />
          <use x="1" y="961" href="#little-hole" />
          <use x="1" y="961" href="#big-hole" />
          <use x="1" y="1081" href="#little-hole" />
          <use x="1" y="1081" href="#big-hole" />
        </svg>
        <text class="caption" height="100" x="80" y="45">  C1  </text>
      </svg>
      <svg class="note_fingering" x="192" y="30" width="162" height="1360">
        <rect class="note_fingering_background" width="100%" height="100%" />
        <svg class="fingering" x="30" y="100" width="102" height="1200">
          <rect class="fingering_background" width="100%" height="100%" />
          <use x="1" y="1" href="#pad" />
          <use x="1" y="121" href="#horizontal-line" />
          <use x="1" y="241" href="#pad" />
          <use x="1" y="361" href="#pad" />
          <use x="1" y="481" href="#pad" />
          <use x="1" y="601" href="#horizontal-line" />
          <use x="1" y="721" href="#pad" />
          <use x="1" y="841" href="#pad" />
          <use x="1" y="961" href="#little-hole" />
          <use x="1" y="961" href="#big-hole" />
          <use x="1" y="1081" href="#little-hole" class="outline" />
          <use x="1" y="1081" href="#big-hole" />
        </svg>
        <text class="caption" height="100" x="80" y="45">C♯/D♭1</text>
      </svg>
      <svg class="note_fingering" x="354" y="30" width="162" height="1360">
        <rect class="note_fingering_background" width="100%" height="100%" />
        <svg class="fingering" x="30" y="100" width="102" height="1200">
          <rect class="fingering_background" width="100%" height="100%" />
          <use x="1" y="1" href="#pad" />
          <use x="1" y="121" href="#horizontal-line" />
          <use x="1" y="241" href="#pad" />
          <use x="1" y="361" href="#pad" />
          <use x="1" y="481" href="#pad" />
          <use x="1" y="601" href="#horizontal-line" />
          <use x="1" y="721" href="#pad" />
          <use x="1" y="841" href="#pad" />
          <use x="1" y="961" href="#little-hole" />
          <use x="1" y="961" href="#big-hole" />
          <use x="1" y="1081" href="#little-hole" class="outline" />
          <use x="1" y="1081" href="#big-hole" class="outline" />
        </svg>
        <text class="caption" height="100" x="80" y="45">  D1  </text>
      </svg>
      <svg class="note_fingering" x="516" y="30" width="162" height="1360">
        <rect class="note_fingering_background" width="100%" height="100%" />
        <svg class="fingering" x="30" y="100" width="102" height="1200">
          <rect class="fingering_background" width="100%" height="100%" />
          <use x="1" y="1" href="#pad" />
          <use x="1" y="121" href="#horizontal-line" />
          <use x="1" y="241" href="#pad" />
          <use x="1" y="361" href="#pad" />
          <use x="1" y="481" href="#pad" />
          <use x="1" y="601" href="#horizontal-line" />
          <use x="1" y="721" href="#pad" />
          <use x="1" y="841" href="#pad" />
          <use x="1" y="961" href="#little-hole" class="outline" />
          <use x="1" y="961" href="#big-hole" />
          <use x="1" y="1081" href="#little-hole" class="outline" />
          <use x="1" y="1081" href="#big-hole" class="outline" />
        </svg>
        <text class="caption" height="100" x="80" y="45">D♯/E♭1</text>
      </svg>
      <svg class="note_fingering" x="678" y="30" width="162" height="1360">
        <rect class="note_fingering_background" width="100%" height="100%" />
        <svg class="fingering" x="30" y="100" width="102" height="1200">
          <rect class="fingering_background" width="100%" height="100%" />
          <use x="1" y="1" href="#pad" />
          <use x="1" y="121" href="#horizontal-line" />
          <use x="1" y="241" href="#pad" />
          <use x="1" y="361" href="#pad" />
          <use x="1" y="481" href="#pad" />
          <use x="1" y="601" href="#horizontal-line" />
          <use x="1" y="721" href="#pad" />
          <use x="1" y="841" href="#pad" />
          <use x="1" y="961" href="#little-hole" class="outline" />
          <use x="1" y="961" href="#big-hole" class="outline" />
          <use x="1" y="1081" href="#little-hole" class="outline" />
          <use x="1" y="1081" href="#big-hole" class="outline" />
        </svg>
        <text class="caption" height="100" x="80" y="45">  E1  </text>
      </svg>
      <svg class="note_fingering" x="840" y="30" width="162" height="1360">
        <rect class="note_fingering_background" width="100%" height="100%" />
        <svg class="fingering" x="30" y="100" width="102" height="1200">
          <rect class="fingering_background" width="100%" height="100%" />
          <use x="1" y="1" href="#pad" />
          <use x="1" y="121" href="#horizontal-line" />
          <use x="1" y="241" href="#pad" />
          <use x="1" y="361" href="#pad" />
          <use x="1" y="481" href="#pad" />
          <use x="1" y="601" href="#horizontal-line" />
          <use x="1" y="721" href="#pad" />
          <use x="1" y="841" href="#pad" class="outline" />
          <use x="1" y="961" href="#little-hole" />
          <use x="1" y="961" href="#big-hole" />
          <use x="1" y="1081" href="#little-hole" />
          <use x="1" y="1081" href="#big-hole" />
        </svg>
        <text class="caption" height="100" x="80" y="45">  F1  </text>
      </svg>
      <svg class="note_fingering" x="1002" y="30" width="162" height="1360">
        <rect class="note_fingering_background" width="100%" height="100%" />
        <svg class="fingering" x="30" y="100" width="102" height="1200">
          <rect class="fingering_background" width="100%" height="100%" />
          <use x="1" y="1" href="#pad" />
          <use x="1" y="121" href="#horizontal-line" />
          <use x="1" y="241" href="#pad" />
          <use x="1" y="361" href="#pad" />
          <use x="1" y="481" href="#pad" />
          <use x="1" y="601" href="#horizontal-line" />
          <use x="1" y="721" href="#pad" class="outline" />
          <use x="1" y="841" href="#pad" />
          <use x="1" y="961" href="#little-hole" />
          <use x="1" y="961" href="#big-hole" />
          <use x="1" y="1081" href="#little-hole" class="outline" />
          <use x="1" y="1081" href="#big-hole" class="outline" />
        </svg>
        <text class="caption" height="100" x="80" y="45">F♯/G♭1</text>
      </svg>
      <svg class="note_fingering" x="1164" y="30" width="162" height="1360">
        <rect class="note_fingering_background" width="100%" height="100%" />
        <svg class="fingering" x="30" y="100" width="102" height="1200">
          <rect class="fingering_background" width="100%" height="100%" />
          <use x="1" y="1" href="#pad" />
          <use x="1" y="121" href="#horizontal-line" />
          <use x="1" y="241" href="#pad" />
          <use x="1" y="361" href="#pad" />
          <use x="1" y="481" href="#pad" />
          <use x="1" y="601" href="#horizontal-line" />
          <use x="1" y="721" href="#pad" class="outline" />
          <use x="1" y="841" href="#pad" class="outline" />
          <use x="1" y="961" href="#little-hole" class="outline" />
          <use x="1" y="961" href="#big-hole" class="outline" />
          <use x="1" y="1081" href="#little-hole" class="outline" />
          <use x="1" y="1081" href="#big-hole" class="outline" />
        </svg>
        <text class="caption" height="100" x="80" y="45">  G1  </text>
      </svg>
      <svg class="note_fingering" x="1326" y="30" width="162" height="1360">
        <rect class="note_fingering_background" width="100%" height="100%" />
        <svg class="fingering" x="30" y="100" width="102" height="1200">
          <rect class="fingering_background" width="100%" height="100%" />
          <use x="1" y="1" href="#pad" />
          <use x="1" y="121" href="#horizontal-line" />
          <use x="1" y="241" href="#pad" />
          <use x="1" y="361" href="#pad" />
          <use x="1" y="481" href="#pad" class="outline" />
          <use x="1" y="601" href="#horizontal-line" />
          <use x="1" y="721" href="#pad" />
          <use x="1" y="841" href="#pad" />
          <use x="1" y="961" href="#little-hole" class="outline" />
          <use x="1" y="961" href="#big-hole" />
          <use x="1" y="1081" href="#little-hole" class="outline" />
          <use x="1" y="1081" href="#big-hole" class="outline" />
        </svg>
        <text class="caption" height="100" x="80" y="45">G♯/A♭1</text>
      </svg>
      <svg class="note_fingering" x="1488" y="30" width="162" height="1360">
        <rect class="note_fingering_background" width="100%" height="100%" />
        <svg class="fingering" x="30" y="100" width="102" height="1200">
          <rect class="fingering_background" width="100%" height="100%" />
          <use x="1" y="1" href="#pad" />
          <use x="1" y="121" href="#horizontal-line" />
          <use x="1" y="241" href="#pad" />
          <use x="1" y="361" href="#pad" />
          <use x="1" y="481" href="#pad" class="outline" />
          <use x="1" y="601" href="#horizontal-line" />
          <use x="1" y="721" href="#pad" class="outline" />
          <use x="1" y="841" href="#pad" class="outline" />
          <use x="1" y="961" href="#little-hole" class="outline" />
          <use x="1" y="961" href="#big-hole" class="outline" />
          <use x="1" y="1081" href="#little-hole" class="outline" />
          <use x="1" y="1081" href="#big-hole" class="outline" />
        </svg>
        <text class="caption" height="100" x="80" y="45">  A1  </text>
      </svg>
      <svg class="note_fingering" x="1650" y="30" width="162" height="1360">
        <rect class="note_fingering_background" width="100%" height="100%" />
        <svg class="fingering" x="30" y="100" width="102" height="1200">
          <rect class="fingering_background" width="100%" height="100%" />
          <use x="1" y="1" href="#pad" />
          <use x="1" y="121" href="#horizontal-line" />
          <use x="1" y="241" href="#pad" />
          <use x="1" y="361" href="#pad" />
          <use x="1" y="481" href="#pad" class="outline" />
          <use x="1" y="601" href="#horizontal-line" />
          <use x="1" y="721" href="#pad" />
          <use x="1" y="841" href="#pad" class="outline" />
          <use x="1" y="961" href="#little-hole" class="outline" />
          <use x="1" y="961" href="#big-hole" class="outline" />
          <use x="1" y="1081" href="#little-hole" class="outline" />
          <use x="1" y="1081" href="#big-hole" class="outline" />
        </svg>
        <text class="caption" height="100" x="80" y="45">A♯/B♭1</text>
      </svg>
      <svg class="note_fingering" x="1812" y="30" width="162" height="1360">
        <rect class="note_fingering_background" width="100%" height="100%" />
        <svg class="fingering" x="30" y="100" width="102" height="1200">
          <rect class="fingering_background" width="100%" height="100%" />
          <use x="1" y="1" href="#pad" />
          <use x="1" y="121" href="#horizontal-line" />
          <use x="1" y="241" href="#pad" />
          <use x="1" y="361" href="#pad" class="outline" />
          <use x="1" y="481" href="#pad" class="outline" />
          <use x="1" y="601" href="#horizontal-line" />
          <use x="1" y="721" href="#pad" class="outline" />
          <use x="1" y="841" href="#pad" class="outline" />
          <use x="1" y="961" href="#little-hole" class="outline" />
          <use x="1" y="961" href="#big-hole" class="outline" />
          <use x="1" y="1081" href="#little-hole" class="outline" />
          <use x="1" y="1081" href="#big-hole" class="outline" />
        </svg>
        <text class="caption" height="100" x="80" y="45">  B1  </text>
      </svg>
      <svg class="note_fingering" x="1974" y="30" width="162" height="1360">
        <rect class="note_fingering_background" width="100%" height="100%" />
        <svg class="fingering" x="30" y="100" width="102" height="1200">
          <rect class="fingering_background" width="100%" height="100%" />
          <use x="1" y="1" href="#pad" />
          <use x="1" y="121" href="#horizontal-line" />
          <use x="1" y="241" href="#pad" class="outline" />
          <use x="1" y="361" href="#pad" />
          <use x="1" y="481" href="#pad" class="outline" />
          <use x="1" y="601" href="#horizontal-line" />
          <use x="1" y="721" href="#pad" class="outline" />
          <use x="1" y="841" href="#pad" class="outline" />
          <use x="1" y="961" href="#little-hole" class="outline" />
          <use x="1" y="961" href="#big-hole" class="outline" />
          <use x="1" y="1081" href="#little-hole" class="outline" />
          <use x="1" y="1081" href="#big-hole" class="outline" />
        </svg>
        <text class="caption" height="100" x="80" y="45">  C2  </text>
      </svg>
      <svg class="note_fingering" x="2136" y="30" width="162" height="1360">
        <rect class="note_fingering_background" width="100%" height="100%" />
        <svg class="fingering" x="30" y="100" width="102" height="1200">
          <rect class="fingering_background" width="100%" height="100%" />
          <use x="1" y="1" href="#pad" class="outline" />
          <use x="1" y="121" href="#horizontal-line" />
          <use x="1" y="241" href="#pad" />
          <use x="1" y="361" href="#pad" />
          <use x="1" y="481" href="#pad" class="outline" />
          <use x="1" y="601" href="#horizontal-line" />
          <use x="1" y="721" href="#pad" class="outline" />
          <use x="1" y="841" href="#pad" class="outline" />
          <use x="1" y="961" href="#little-hole" class="outline" />
          <use x="1" y="961" href="#big-hole" class="outline" />
          <use x="1" y="1081" href="#little-hole" class="outline" />
          <use x="1" y="1081" href="#big-hole" class="outline" />
        </svg>
        <text class="caption" height="100" x="80" y="45">C♯/D♭2</text>
      </svg>
    </svg>
    <svg class="chart" x="30" y="1820" width="2328" height="1420">
      <rect class="chart_background" width="100%" height="100%" />
      <svg class="note_fingering" x="30" y="30" width="162" height="1360">
        <rect class="note_fingering_background" width="100%" height="100%" />
        <svg class="fingering" x="30" y="100" width="102" height="1200">
          <rect class="fingering_background" width="100%" height="100%" />
          <use x="1" y="1" href="#pad" class="outline" />
          <use x="1" y="121" href="#horizontal-line" />
          <use x="1" y="241" href="#pad" class="outline" />
          <use x="1" y="361" href="#pad" />
          <use x="1" y="481" href="#pad" class="outline" />
          <use x="1" y="601" href="#horizontal-line" />
          <use x="1" y="721" href="#pad" class="outline" />
          <use x="1" y="841" href="#pad" class="outline" />
          <use x="1" y="961" href="#little-hole" class="outline" />
          <use x="1" y="961" href="#big-hole" class="outline" />
          <use x="1" y="1081" href="#little-hole" class="outline" />
          <use x="1" y="1081" href="#big-hole" class="outline" />
        </svg>
        <text class="caption" height="100" x="80" y="45">  D2  </text>
      </svg>
      <svg class="note_fingering" x="192" y="30" width="162" height="1360">
        <rect class="note_fingering_background" width="100%" height="100%" />
        <svg class="fingering" x="30" y="100" width="102" height="1200">
          <rect class="fingering_background" width="100%" height="100%" />
          <use x="1" y="1" href="#pad" class="outline" />
          <use x="1" y="121" href="#horizontal-line" />
          <use x="1" y="241" href="#pad" class="outline" />
          <use x="1" y="361" href="#pad" />
          <use x="1" y="481" href="#pad" />
          <use x="1" y="601" href="#horizontal-line" />
          <use x="1" y="721" href="#pad" />
          <use x="1" y="841" href="#pad" />
          <use x="1" y="961" href="#little-hole" />
          <use x="1" y="961" href="#big-hole" />
          <use x="1" y="1081" href="#little-hole" class="outline" />
          <use x="1" y="1081" href="#big-hole" class="outline" />
        </svg>
        <text class="caption" height="100" x="80" y="45">D♯/E♭2</text>
      </svg>
      <svg class="note_fingering" x="354" y="30" width="162" height="1360">
        <rect class="note_fingering_background" width="100%" height="100%" />
        <svg class="fingering" x="30" y="100" width="102" height="1200">
          <rect class="fingering_background" width="100%" height="100%" />
          <use x="1" y="1" href="#pad" class="outline" />
          <use x="1" y="1" href="#octave" />
          <use x="1" y="121" href="#horizontal-line" />
          <use x="1" y="241" href="#pad" />
          <use x="1" y="361" href="#pad" />
          <use x="1" y="481" href="#pad" />
          <use x="1" y="601" href="#horizontal-line" />
          <use x="1" y="721" href="#pad" />
          <use x="1" y="841" href="#pad" />
          <use x="1" y="961" href="#little-hole" class="outline" />
          <use x="1" y="961" href="#big-hole" class="outline" />
          <use x="1" y="1081" href="#little-hole" class="outline" />
          <use x="1" y="1081" href="#big-hole" class="outline" />
        </svg>
        <text class="caption" height="100" x="80" y="45">  E2  </text>
      </svg>
      <svg class="note_fingering" x="516" y="30" width="162" height="1360">
        <rect class="note_fingering_background" width="100%" height="100%" />
        <svg class="fingering" x="30" y="100" width="102" height="1200">
          <rect class="fingering_background" width="100%" height="100%" />
          <use x="1" y="1" href="#pad" class="outline" />
          <use x="1" y="1" href="#octave" />
          <use x="1" y="121" href="#horizontal-line" />
          <use x="1" y="241" href="#pad" />
          <use x="1" y="361" href="#pad" />
          <use x="1" y="481" href="#pad" />
          <use x="1" y="601" href="#horizontal-line" />
          <use x="1" y="721" href="#pad" />
          <use x="1" y="841" href="#pad" class="outline" />
          <use x="1" y="961" href="#little-hole" />
          <use x="1" y="961" href="#big-hole" />
          <use x="1" y="1081" href="#little-hole" class="outline" />
          <use x="1" y="1081" href="#big-hole" class="outline" />
        </svg>
        <text class="caption" height="100" x="80" y="45">  F2  </text>
      </svg>
      <svg class="note_fingering" x="678" y="30" width="162" height="1360">
        <rect class="note_fingering_background" width="100%" height="100%" />
        <svg class="fingering" x="30" y="100" width="102" height="1200">
          <rect class="fingering_background" width="100%" height="100%" />
          <use x="1" y="1" href="#pad" class="outline" />
          <use x="1" y="1" href="#octave" />
          <use x="1" y="121" href="#horizontal-line" />
          <use x="1" y="241" href="#pad" />
          <use x="1" y="361" href="#pad" />
          <use x="1" y="481" href="#pad" />
          <use x="1" y="601" href="#horizontal-line" />
          <use x="1" y="721" href="#pad" class="outline" />
          <use x="1" y="841" href="#pad" />
          <use x="1" y="961" href="#little-hole" class="outline" />
          <use x="1" y="961" href="#big-hole" class="outline" />
          <use x="1" y="1081" href="#little-hole" class="outline" />
          <use x="1" y="1081" href="#big-hole" class="outline" />
        </svg>
        <text class="caption" height="100" x="80" y="45">F♯/G♭2</text>
      </svg>
      <svg class="note_fingering" x="840" y="30" width="162" height="1360">
        <rect class="note_fingering_background" width="100%" height="100%" />
        <svg class="fingering" x="30" y="100" width="102" height="1200">
          <rect class="fingering_background" width="100%" height="100%" />
          <use x="1" y="1" href="#pad" class="outline" />
          <use x="1" y="1" href="#octave" />
          <use x="1" y="121" href="#horizontal-line" />
          <use x="1" y="241" href="#pad" />
          <use x="1" y="361" href="#pad" />
          <use x="1" y="481" href="#pad" />
          <use x="1" y="601" href="#horizontal-line" />
          <use x="1" y="721" href="#pad" class="outline" />
          <use x="1" y="841" href="#pad" class="outline" />
          <use x="1" y="961" href="#little-hole" class="outline" />
          <use x="1" y="961" href="#big-hole" class="outline" />
          <use x="1" y="1081" href="#little-hole" class="outline" />
          <use x="1" y="1081" href="#big-hole" class="outline" />
        </svg>
        <text class="caption" height="100" x="80" y="45">  G2  </text>
      </svg>
      <svg class="note_fingering" x="1002" y="30" width="162" height="1360">
        <rect class="note_fingering_background" width="100%" height="100%" />
        <svg class="fingering" x="30" y="100" width="102" height="1200">
          <rect class="fingering_background" width="100%" height="100%" />
          <use x="1" y="1" href="#pad" class="outline" />
          <use x="1" y="1" href="#octave" />
          <use x="1" y="121" href="#horizontal-line" />
          <use x="1" y="241" href="#pad" />
          <use x="1" y="361" href="#pad" />
          <use x="1" y="481" href="#pad" class="outline" />
          <use x="1" y="601" href="#horizontal-line" />
          <use x="1" y="721" href="#pad" />
          <use x="1" y="841" href="#pad" class="outline" />
          <use x="1" y="961" href="#little-hole" class="outline" />
          <use x="1" y="961" href="#big-hole" class="outline" />
          <use x="1" y="1081" href="#little-hole" class="outline" />
          <use x="1" y="1081" href="#big-hole" class="outline" />
        </svg>
        <text class="caption" height="100" x="80" y="45">G♯/A♭2</text>
      </svg>
      <svg class="note_fingering" x="1164" y="30" width="162" height="1360">
        <rect class="note_fingering_background" width="100%" height="100%" />
        <svg class="fingering" x="30" y="100" width="102" height="1200">
          <rect class="fingering_background" width="100%" height="100%" />
          <use x="1" y="1" href="#pad" class="outline" />
          <use x="1" y="1" href="#octave" />
          <use x="1" y="121" href="#horizontal-line" />
          <use x="1" y="241" href="#pad" />
          <use x="1" y="361" href="#pad" />
          <use x="1" y="481" href="#pad" class="outline" />
          <use x="1" y="601" href="#horizontal-line" />
          <use x="1" y="721" href="#pad" class="outline" />
          <use x="1" y="841" href="#pad" class="outline" />
          <use x="1" y="961" href="#little-hole" class="outline" />
          <use x="1" y="961" href="#big-hole" class="outline" />
          <use x="1" y="1081" href="#little-hole" class="outline" />
          <use x="1" y="1081" href="#big-hole" class="outline" />
        </svg>
        <text class="caption" height="100" x="80" y="45">  A2  </text>
      </svg>
      <svg class="note_fingering" x="1326" y="30" width="162" height="1360">
        <rect class="note_fingering_background" width="100%" height="100%" />
        <svg class="fingering" x="30" y="100" width="102" height="1200">
          <rect class="fingering_background" width="100%" height="100%" />
          <use x="1" y="1" href="#pad" class="outline" />
          <use x="1" y="1" href="#octave" />
          <use x="1" y="121" href="#horizontal-line" />
          <use x="1" y="241" href="#pad" />
          <use x="1" y="361" href="#pad" />
          <use x="1" y="481" href="#pad" class="outline" />
          <use x="1" y="601" href="#horizontal-line" />
          <use x="1" y="721" href="#pad" class="outline" />
          <use x="1" y="841" href="#pad" />
          <use x="1" y="961" href="#little-hole" />
          <use x="1" y="961" href="#big-hole" />
          <use x="1" y="1081" href="#little-hole" class="outline" />
          <use x="1" y="1081" href="#big-hole" />
        </svg>
        <text class="caption" height="100" x="80" y="45">A♯/B♭2</text>
      </svg>
      <svg class="note_fingering" x="1488" y="30" width="162" height="1360">
        <rect class="note_fingering_background" width="100%" height="100%" />
        <svg class="fingering" x="30" y="100" width="102" height="1200">
          <rect class="fingering_background" width="100%" height="100%" />
          <use x="1" y="1" href="#pad" class="outline" />
          <use x="1" y="1" href="#octave" />
          <use x="1" y="121" href="#horizontal-line" />
          <use x="1" y="241" href="#pad" />
          <use x="1" y="361" href="#pad" />
          <use x="1" y="481" href="#pad" class="outline" />
          <use x="1" y="601" href="#horizontal-line" />
          <use x="1" y="721" href="#pad" />
          <use x="1" y="841" href="#pad" />
          <use x="1" y="961" href="#little-hole" class="outline" />
          <use x="1" y="961" href="#big-hole" class="outline" />
          <use x="1" y="1081" href="#little-hole" class="outline" />
          <use x="1" y="1081" href="#big-hole" class="outline" />
        </svg>
        <text class="caption" height="100" x="80" y="45">  B2  </text>
      </svg>
      <svg class="note_fingering" x="1650" y="30" width="162" height="1360">
        <rect class="note_fingering_background" width="100%" height="100%" />
        <svg class="fingering" x="30" y="100" width="102" height="1200">
          <rect class="fingering_background" width="100%" height="100%" />
          <use x="1" y="1" href="#pad" class="outline" />
          <use x="1" y="1" href="#octave" />
          <use x="1" y="121" href="#horizontal-line" />
          <use x="1" y="241" href="#pad" />
          <use x="1" y="361" href="#pad" class="outline" />
          <use x="1" y="481" href="#pad" class="outline" />
          <use x="1" y="601" href="#horizontal-line" />
          <use x="1" y="721" href="#pad" />
          <use x="1" y="841" href="#pad" />
          <use x="1" y="961" href="#little-hole" class="outline" />
          <use x="1" y="961" href="#big-hole" class="outline" />
          <use x="1" y="1081" href="#little-hole" class="outline" />
          <use x="1" y="1081" href="#big-hole" class="outline" />
        </svg>
        <text class="caption" height="100" x="80" y="45">  C3  </text>
      </svg>
      <svg class="note_fingering" x="1812" y="30" width="162" height="1360">
        <rect class="note_fingering_background" width="100%" height="100%" />
        <svg class="fingering" x="30" y="100" width="102" height="1200">
          <rect class="fingering_background" width="100%" height="100%" />
          <use x="1" y="1" href="#pad" class="outline" />
          <use x="1" y="1" href="#octave" />
          <use x="1" y="121" href="#horizontal-line" />
          <use x="1" y="241" href="#pad" />
          <use x="1" y="361" href="#pad" class="outline" />
          <use x="1" y="481" href="#pad" />
          <use x="1" y="601" href="#horizontal-line" />
          <use x="1" y="721" href="#pad" />
          <use x="1" y="841" href="#pad" class="outline" />
          <use x="1" y="961" href="#little-hole" />
          <use x="1" y="961" href="#big-hole" />
          <use x="1" y="1081" href="#little-hole" class="outline" />
          <use x="1" y="1081" href="#big-hole" class="outline" />
        </svg>
        <text class="caption" height="100" x="80" y="45">C♯/D♭3</text>
      </svg>
      <svg class="note_fingering" x="1974" y="30" width="162" height="1360">
        <rect class="note_fingering_background" width="100%" height="100%" />
        <svg class="fingering" x="30" y="100" width="102" height="1200">
          <rect class="fingering_background" width="100%" height="100%" />
          <use x="1" y="1" href="#pad" class="outline" />
          <use x="1" y="1" href="#octave" />
          <use x="1" y="121" href="#horizontal-line" />
          <use x="1" y="241" href="#pad" />
          <use x="1" y="361" href="#pad" class="outline" />
          <use x="1" y="481" href="#pad" />
          <use x="1" y="601" href="#horizontal-line" />
          <use x="1" y="721" href="#pad" />
          <use x="1" y="841" href="#pad" class="outline" />
          <use x="1" y="961" href="#little-hole" />
          <use x="1" y="961" href="#big-hole" />
          <use x="1" y="1081" href="#little-hole" class="outline" />
          <use x="1" y="1081" href="#big-hole" class="outline" />
        </svg>
        <text class="caption" height="100" x="80" y="45">  D3  </text>
      </svg>
    </svg>
    <rect class="large-separator" x="10" y="1720" width="2368" height="3" />
    <text font-size="35px" font-family="monospace" text-anchor="middle" x="1200" y="3300">
      For more information about how to make charts like this, see https://github.com/rec/fing
    </text>
  </svg>
</svg>
