<?xml version='1.0' encoding='utf-8'?>
<svg viewBox="0 0 2970 3340" xmlns="http://www.w3.org/2000/svg">
  <defs>
    <svg id="copyleft">
      <circle cx="5" cy="5" r="4.49" fill="none" stroke="#000" stroke-width="1" />
      <path d="M 2.23,4.37 H 3.57 a 1.53,1.53 0 1 1 0,1.28 H 2.23 a 2.81,2.81 0 1 0 0-1.28 z" />
    </svg>
    <circle cx="50" cy="50" r="50" id="pad" />
    <circle cx="80" cy="55" r="20" id="little-hole" />
    <circle cx="30" cy="30" r="30" id="big-hole" />
    <rect x="0" y="50" width="120" height="1" style="fill: black;" id="horizontal-line" />
    <path d="  M 0,50   A 50,50 0 0 0 100,50   Z  " fill="black" id="octave" />
  </defs>
  <style>
    .outline { fill: white; stroke: black; stroke-width: 1.5; }
    .caption { fill: black; font-size: 40; font-family: monospace; text-anchor: middle; }
  </style>
  <svg class="body" x="30" y="30" width="2850" height="3220">
    <svg class="page" x="30" y="30" width="2910" height="3280">
      <text font-size="60" font-family="monospace" text-anchor="middle" x="1000" y="100">
      Fingering chart for the Baroque family of recorders
</text>
      <svg y="180" class="charts" x="30" width="2790" height="3010">
        <svg x="0" y="0" class="note-fingering">
          <svg class="fingering" x="30" y="70" width="135" height="1270">
            <use x="1" y="1" href="#pad" />
            <use x="1" y="121" href="#horizontal-line" />
            <use x="1" y="241" href="#pad" />
            <use x="1" y="361" href="#pad" />
            <use x="1" y="481" href="#pad" />
            <use x="1" y="601" href="#horizontal-line" />
            <use x="1" y="721" href="#pad" />
            <use x="1" y="841" href="#pad" />
            <use x="1" y="961" href="#little-hole" />
            <use x="1" y="961" href="#big-hole" />
            <use x="1" y="1081" href="#little-hole" />
            <use x="1" y="1081" href="#big-hole" />
          </svg>
          <g class="caption">
            <text x="80" y="70">  C1  </text>
          </g>
        </svg>
        <svg x="135" y="0" class="note-fingering">
          <svg class="fingering" x="30" y="70" width="135" height="1270">
            <use x="1" y="1" href="#pad" />
            <use x="1" y="121" href="#horizontal-line" />
            <use x="1" y="241" href="#pad" />
            <use x="1" y="361" href="#pad" />
            <use x="1" y="481" href="#pad" />
            <use x="1" y="601" href="#horizontal-line" />
            <use x="1" y="721" href="#pad" />
            <use x="1" y="841" href="#pad" />
            <use x="1" y="961" href="#little-hole" />
            <use x="1" y="961" href="#big-hole" />
            <use x="1" y="1081" href="#little-hole" class="outline" />
            <use x="1" y="1081" href="#big-hole" />
          </svg>
          <g class="caption">
            <text x="80" y="70">C♯/D♭1</text>
          </g>
        </svg>
        <svg x="270" y="0" class="note-fingering">
          <svg class="fingering" x="30" y="70" width="135" height="1270">
            <use x="1" y="1" href="#pad" />
            <use x="1" y="121" href="#horizontal-line" />
            <use x="1" y="241" href="#pad" />
            <use x="1" y="361" href="#pad" />
            <use x="1" y="481" href="#pad" />
            <use x="1" y="601" href="#horizontal-line" />
            <use x="1" y="721" href="#pad" />
            <use x="1" y="841" href="#pad" />
            <use x="1" y="961" href="#little-hole" />
            <use x="1" y="961" href="#big-hole" />
            <use x="1" y="1081" href="#little-hole" class="outline" />
            <use x="1" y="1081" href="#big-hole" class="outline" />
          </svg>
          <g class="caption">
            <text x="80" y="70">  D1  </text>
          </g>
        </svg>
        <svg x="405" y="0" class="note-fingering">
          <svg class="fingering" x="30" y="70" width="135" height="1270">
            <use x="1" y="1" href="#pad" />
            <use x="1" y="121" href="#horizontal-line" />
            <use x="1" y="241" href="#pad" />
            <use x="1" y="361" href="#pad" />
            <use x="1" y="481" href="#pad" />
            <use x="1" y="601" href="#horizontal-line" />
            <use x="1" y="721" href="#pad" />
            <use x="1" y="841" href="#pad" />
            <use x="1" y="961" href="#little-hole" class="outline" />
            <use x="1" y="961" href="#big-hole" />
            <use x="1" y="1081" href="#little-hole" class="outline" />
            <use x="1" y="1081" href="#big-hole" class="outline" />
          </svg>
          <g class="caption">
            <text x="80" y="70">D♯/E♭1</text>
          </g>
        </svg>
        <svg x="540" y="0" class="note-fingering">
          <svg class="fingering" x="30" y="70" width="135" height="1270">
            <use x="1" y="1" href="#pad" />
            <use x="1" y="121" href="#horizontal-line" />
            <use x="1" y="241" href="#pad" />
            <use x="1" y="361" href="#pad" />
            <use x="1" y="481" href="#pad" />
            <use x="1" y="601" href="#horizontal-line" />
            <use x="1" y="721" href="#pad" />
            <use x="1" y="841" href="#pad" />
            <use x="1" y="961" href="#little-hole" class="outline" />
            <use x="1" y="961" href="#big-hole" class="outline" />
            <use x="1" y="1081" href="#little-hole" class="outline" />
            <use x="1" y="1081" href="#big-hole" class="outline" />
          </svg>
          <g class="caption">
            <text x="80" y="70">  E1  </text>
          </g>
        </svg>
        <svg x="675" y="0" class="note-fingering">
          <svg class="fingering" x="30" y="70" width="135" height="1270">
            <use x="1" y="1" href="#pad" />
            <use x="1" y="121" href="#horizontal-line" />
            <use x="1" y="241" href="#pad" />
            <use x="1" y="361" href="#pad" />
            <use x="1" y="481" href="#pad" />
            <use x="1" y="601" href="#horizontal-line" />
            <use x="1" y="721" href="#pad" />
            <use x="1" y="841" href="#pad" class="outline" />
            <use x="1" y="961" href="#little-hole" />
            <use x="1" y="961" href="#big-hole" />
            <use x="1" y="1081" href="#little-hole" />
            <use x="1" y="1081" href="#big-hole" />
          </svg>
          <g class="caption">
            <text x="80" y="70">  F1  </text>
          </g>
        </svg>
        <svg x="810" y="0" class="note-fingering">
          <svg class="fingering" x="30" y="70" width="135" height="1270">
            <use x="1" y="1" href="#pad" />
            <use x="1" y="121" href="#horizontal-line" />
            <use x="1" y="241" href="#pad" />
            <use x="1" y="361" href="#pad" />
            <use x="1" y="481" href="#pad" />
            <use x="1" y="601" href="#horizontal-line" />
            <use x="1" y="721" href="#pad" class="outline" />
            <use x="1" y="841" href="#pad" />
            <use x="1" y="961" href="#little-hole" />
            <use x="1" y="961" href="#big-hole" />
            <use x="1" y="1081" href="#little-hole" class="outline" />
            <use x="1" y="1081" href="#big-hole" class="outline" />
          </svg>
          <g class="caption">
            <text x="80" y="70">F♯/G♭1</text>
          </g>
        </svg>
        <svg x="945" y="0" class="note-fingering">
          <svg class="fingering" x="30" y="70" width="135" height="1270">
            <use x="1" y="1" href="#pad" />
            <use x="1" y="121" href="#horizontal-line" />
            <use x="1" y="241" href="#pad" />
            <use x="1" y="361" href="#pad" />
            <use x="1" y="481" href="#pad" />
            <use x="1" y="601" href="#horizontal-line" />
            <use x="1" y="721" href="#pad" class="outline" />
            <use x="1" y="841" href="#pad" class="outline" />
            <use x="1" y="961" href="#little-hole" class="outline" />
            <use x="1" y="961" href="#big-hole" class="outline" />
            <use x="1" y="1081" href="#little-hole" class="outline" />
            <use x="1" y="1081" href="#big-hole" class="outline" />
          </svg>
          <g class="caption">
            <text x="80" y="70">  G1  </text>
          </g>
        </svg>
        <svg x="1080" y="0" class="note-fingering">
          <svg class="fingering" x="30" y="70" width="135" height="1270">
            <use x="1" y="1" href="#pad" />
            <use x="1" y="121" href="#horizontal-line" />
            <use x="1" y="241" href="#pad" />
            <use x="1" y="361" href="#pad" />
            <use x="1" y="481" href="#pad" class="outline" />
            <use x="1" y="601" href="#horizontal-line" />
            <use x="1" y="721" href="#pad" />
            <use x="1" y="841" href="#pad" />
            <use x="1" y="961" href="#little-hole" class="outline" />
            <use x="1" y="961" href="#big-hole" />
            <use x="1" y="1081" href="#little-hole" class="outline" />
            <use x="1" y="1081" href="#big-hole" class="outline" />
          </svg>
          <g class="caption">
            <text x="80" y="70">G♯/A♭1</text>
          </g>
        </svg>
        <svg x="1215" y="0" class="note-fingering">
          <svg class="fingering" x="30" y="70" width="135" height="1270">
            <use x="1" y="1" href="#pad" />
            <use x="1" y="121" href="#horizontal-line" />
            <use x="1" y="241" href="#pad" />
            <use x="1" y="361" href="#pad" />
            <use x="1" y="481" href="#pad" class="outline" />
            <use x="1" y="601" href="#horizontal-line" />
            <use x="1" y="721" href="#pad" class="outline" />
            <use x="1" y="841" href="#pad" class="outline" />
            <use x="1" y="961" href="#little-hole" class="outline" />
            <use x="1" y="961" href="#big-hole" class="outline" />
            <use x="1" y="1081" href="#little-hole" class="outline" />
            <use x="1" y="1081" href="#big-hole" class="outline" />
          </svg>
          <g class="caption">
            <text x="80" y="70">  A1  </text>
          </g>
        </svg>
        <svg x="1350" y="0" class="note-fingering">
          <svg class="fingering" x="30" y="70" width="135" height="1270">
            <use x="1" y="1" href="#pad" />
            <use x="1" y="121" href="#horizontal-line" />
            <use x="1" y="241" href="#pad" />
            <use x="1" y="361" href="#pad" />
            <use x="1" y="481" href="#pad" class="outline" />
            <use x="1" y="601" href="#horizontal-line" />
            <use x="1" y="721" href="#pad" />
            <use x="1" y="841" href="#pad" class="outline" />
            <use x="1" y="961" href="#little-hole" class="outline" />
            <use x="1" y="961" href="#big-hole" class="outline" />
            <use x="1" y="1081" href="#little-hole" class="outline" />
            <use x="1" y="1081" href="#big-hole" class="outline" />
          </svg>
          <g class="caption">
            <text x="80" y="70">A♯/B♭1</text>
          </g>
        </svg>
        <svg x="1485" y="0" class="note-fingering">
          <svg class="fingering" x="30" y="70" width="135" height="1270">
            <use x="1" y="1" href="#pad" />
            <use x="1" y="121" href="#horizontal-line" />
            <use x="1" y="241" href="#pad" />
            <use x="1" y="361" href="#pad" class="outline" />
            <use x="1" y="481" href="#pad" class="outline" />
            <use x="1" y="601" href="#horizontal-line" />
            <use x="1" y="721" href="#pad" class="outline" />
            <use x="1" y="841" href="#pad" class="outline" />
            <use x="1" y="961" href="#little-hole" class="outline" />
            <use x="1" y="961" href="#big-hole" class="outline" />
            <use x="1" y="1081" href="#little-hole" class="outline" />
            <use x="1" y="1081" href="#big-hole" class="outline" />
          </svg>
          <g class="caption">
            <text x="80" y="70">  B1  </text>
          </g>
        </svg>
        <svg x="1620" y="0" class="note-fingering">
          <svg class="fingering" x="30" y="70" width="135" height="1270">
            <use x="1" y="1" href="#pad" />
            <use x="1" y="121" href="#horizontal-line" />
            <use x="1" y="241" href="#pad" class="outline" />
            <use x="1" y="361" href="#pad" />
            <use x="1" y="481" href="#pad" class="outline" />
            <use x="1" y="601" href="#horizontal-line" />
            <use x="1" y="721" href="#pad" class="outline" />
            <use x="1" y="841" href="#pad" class="outline" />
            <use x="1" y="961" href="#little-hole" class="outline" />
            <use x="1" y="961" href="#big-hole" class="outline" />
            <use x="1" y="1081" href="#little-hole" class="outline" />
            <use x="1" y="1081" href="#big-hole" class="outline" />
          </svg>
          <g class="caption">
            <text x="80" y="70">  C2  </text>
          </g>
        </svg>
        <svg x="1755" y="0" class="note-fingering">
          <svg class="fingering" x="30" y="70" width="135" height="1270">
            <use x="1" y="1" href="#pad" class="outline" />
            <use x="1" y="121" href="#horizontal-line" />
            <use x="1" y="241" href="#pad" />
            <use x="1" y="361" href="#pad" />
            <use x="1" y="481" href="#pad" class="outline" />
            <use x="1" y="601" href="#horizontal-line" />
            <use x="1" y="721" href="#pad" class="outline" />
            <use x="1" y="841" href="#pad" class="outline" />
            <use x="1" y="961" href="#little-hole" class="outline" />
            <use x="1" y="961" href="#big-hole" class="outline" />
            <use x="1" y="1081" href="#little-hole" class="outline" />
            <use x="1" y="1081" href="#big-hole" class="outline" />
          </svg>
          <g class="caption">
            <text x="80" y="70">C♯/D♭2</text>
          </g>
        </svg>
        <svg x="0" y="1420" class="note-fingering">
          <svg class="fingering" x="30" y="70" width="135" height="1270">
            <use x="1" y="1" href="#pad" class="outline" />
            <use x="1" y="121" href="#horizontal-line" />
            <use x="1" y="241" href="#pad" class="outline" />
            <use x="1" y="361" href="#pad" />
            <use x="1" y="481" href="#pad" class="outline" />
            <use x="1" y="601" href="#horizontal-line" />
            <use x="1" y="721" href="#pad" class="outline" />
            <use x="1" y="841" href="#pad" class="outline" />
            <use x="1" y="961" href="#little-hole" class="outline" />
            <use x="1" y="961" href="#big-hole" class="outline" />
            <use x="1" y="1081" href="#little-hole" class="outline" />
            <use x="1" y="1081" href="#big-hole" class="outline" />
          </svg>
          <g class="caption">
            <text x="80" y="70">  D2  </text>
          </g>
        </svg>
        <svg x="135" y="1420" class="note-fingering">
          <svg class="fingering" x="30" y="70" width="135" height="1270">
            <use x="1" y="1" href="#pad" class="outline" />
            <use x="1" y="121" href="#horizontal-line" />
            <use x="1" y="241" href="#pad" class="outline" />
            <use x="1" y="361" href="#pad" />
            <use x="1" y="481" href="#pad" />
            <use x="1" y="601" href="#horizontal-line" />
            <use x="1" y="721" href="#pad" />
            <use x="1" y="841" href="#pad" />
            <use x="1" y="961" href="#little-hole" />
            <use x="1" y="961" href="#big-hole" />
            <use x="1" y="1081" href="#little-hole" class="outline" />
            <use x="1" y="1081" href="#big-hole" class="outline" />
          </svg>
          <g class="caption">
            <text x="80" y="70">D♯/E♭2</text>
          </g>
        </svg>
        <svg x="270" y="1420" class="note-fingering">
          <svg class="fingering" x="30" y="70" width="135" height="1270">
            <use x="1" y="1" href="#pad" class="outline" />
            <use x="1" y="1" href="#octave" />
            <use x="1" y="121" href="#horizontal-line" />
            <use x="1" y="241" href="#pad" />
            <use x="1" y="361" href="#pad" />
            <use x="1" y="481" href="#pad" />
            <use x="1" y="601" href="#horizontal-line" />
            <use x="1" y="721" href="#pad" />
            <use x="1" y="841" href="#pad" />
            <use x="1" y="961" href="#little-hole" class="outline" />
            <use x="1" y="961" href="#big-hole" class="outline" />
            <use x="1" y="1081" href="#little-hole" class="outline" />
            <use x="1" y="1081" href="#big-hole" class="outline" />
          </svg>
          <g class="caption">
            <text x="80" y="70">  E2  </text>
          </g>
        </svg>
        <svg x="405" y="1420" class="note-fingering">
          <svg class="fingering" x="30" y="70" width="135" height="1270">
            <use x="1" y="1" href="#pad" class="outline" />
            <use x="1" y="1" href="#octave" />
            <use x="1" y="121" href="#horizontal-line" />
            <use x="1" y="241" href="#pad" />
            <use x="1" y="361" href="#pad" />
            <use x="1" y="481" href="#pad" />
            <use x="1" y="601" href="#horizontal-line" />
            <use x="1" y="721" href="#pad" />
            <use x="1" y="841" href="#pad" class="outline" />
            <use x="1" y="961" href="#little-hole" />
            <use x="1" y="961" href="#big-hole" />
            <use x="1" y="1081" href="#little-hole" class="outline" />
            <use x="1" y="1081" href="#big-hole" class="outline" />
          </svg>
          <g class="caption">
            <text x="80" y="70">  F2  </text>
          </g>
        </svg>
        <svg x="540" y="1420" class="note-fingering">
          <svg class="fingering" x="30" y="70" width="135" height="1270">
            <use x="1" y="1" href="#pad" class="outline" />
            <use x="1" y="1" href="#octave" />
            <use x="1" y="121" href="#horizontal-line" />
            <use x="1" y="241" href="#pad" />
            <use x="1" y="361" href="#pad" />
            <use x="1" y="481" href="#pad" />
            <use x="1" y="601" href="#horizontal-line" />
            <use x="1" y="721" href="#pad" class="outline" />
            <use x="1" y="841" href="#pad" />
            <use x="1" y="961" href="#little-hole" class="outline" />
            <use x="1" y="961" href="#big-hole" class="outline" />
            <use x="1" y="1081" href="#little-hole" class="outline" />
            <use x="1" y="1081" href="#big-hole" class="outline" />
          </svg>
          <g class="caption">
            <text x="80" y="70">F♯/G♭2</text>
          </g>
        </svg>
        <svg x="675" y="1420" class="note-fingering">
          <svg class="fingering" x="30" y="70" width="135" height="1270">
            <use x="1" y="1" href="#pad" class="outline" />
            <use x="1" y="1" href="#octave" />
            <use x="1" y="121" href="#horizontal-line" />
            <use x="1" y="241" href="#pad" />
            <use x="1" y="361" href="#pad" />
            <use x="1" y="481" href="#pad" />
            <use x="1" y="601" href="#horizontal-line" />
            <use x="1" y="721" href="#pad" class="outline" />
            <use x="1" y="841" href="#pad" class="outline" />
            <use x="1" y="961" href="#little-hole" class="outline" />
            <use x="1" y="961" href="#big-hole" class="outline" />
            <use x="1" y="1081" href="#little-hole" class="outline" />
            <use x="1" y="1081" href="#big-hole" class="outline" />
          </svg>
          <g class="caption">
            <text x="80" y="70">  G2  </text>
          </g>
        </svg>
        <svg x="810" y="1420" class="note-fingering">
          <svg class="fingering" x="30" y="70" width="135" height="1270">
            <use x="1" y="1" href="#pad" class="outline" />
            <use x="1" y="1" href="#octave" />
            <use x="1" y="121" href="#horizontal-line" />
            <use x="1" y="241" href="#pad" />
            <use x="1" y="361" href="#pad" />
            <use x="1" y="481" href="#pad" class="outline" />
            <use x="1" y="601" href="#horizontal-line" />
            <use x="1" y="721" href="#pad" />
            <use x="1" y="841" href="#pad" class="outline" />
            <use x="1" y="961" href="#little-hole" class="outline" />
            <use x="1" y="961" href="#big-hole" class="outline" />
            <use x="1" y="1081" href="#little-hole" class="outline" />
            <use x="1" y="1081" href="#big-hole" class="outline" />
          </svg>
          <g class="caption">
            <text x="80" y="70">G♯/A♭2</text>
          </g>
        </svg>
        <svg x="945" y="1420" class="note-fingering">
          <svg class="fingering" x="30" y="70" width="135" height="1270">
            <use x="1" y="1" href="#pad" class="outline" />
            <use x="1" y="1" href="#octave" />
            <use x="1" y="121" href="#horizontal-line" />
            <use x="1" y="241" href="#pad" />
            <use x="1" y="361" href="#pad" />
            <use x="1" y="481" href="#pad" class="outline" />
            <use x="1" y="601" href="#horizontal-line" />
            <use x="1" y="721" href="#pad" class="outline" />
            <use x="1" y="841" href="#pad" class="outline" />
            <use x="1" y="961" href="#little-hole" class="outline" />
            <use x="1" y="961" href="#big-hole" class="outline" />
            <use x="1" y="1081" href="#little-hole" class="outline" />
            <use x="1" y="1081" href="#big-hole" class="outline" />
          </svg>
          <g class="caption">
            <text x="80" y="70">  A2  </text>
          </g>
        </svg>
        <svg x="1080" y="1420" class="note-fingering">
          <svg class="fingering" x="30" y="70" width="135" height="1270">
            <use x="1" y="1" href="#pad" class="outline" />
            <use x="1" y="1" href="#octave" />
            <use x="1" y="121" href="#horizontal-line" />
            <use x="1" y="241" href="#pad" />
            <use x="1" y="361" href="#pad" />
            <use x="1" y="481" href="#pad" class="outline" />
            <use x="1" y="601" href="#horizontal-line" />
            <use x="1" y="721" href="#pad" class="outline" />
            <use x="1" y="841" href="#pad" />
            <use x="1" y="961" href="#little-hole" />
            <use x="1" y="961" href="#big-hole" />
            <use x="1" y="1081" href="#little-hole" class="outline" />
            <use x="1" y="1081" href="#big-hole" />
          </svg>
          <g class="caption">
            <text x="80" y="70">A♯/B♭2</text>
          </g>
        </svg>
        <svg x="1215" y="1420" class="note-fingering">
          <svg class="fingering" x="30" y="70" width="135" height="1270">
            <use x="1" y="1" href="#pad" class="outline" />
            <use x="1" y="1" href="#octave" />
            <use x="1" y="121" href="#horizontal-line" />
            <use x="1" y="241" href="#pad" />
            <use x="1" y="361" href="#pad" />
            <use x="1" y="481" href="#pad" class="outline" />
            <use x="1" y="601" href="#horizontal-line" />
            <use x="1" y="721" href="#pad" />
            <use x="1" y="841" href="#pad" />
            <use x="1" y="961" href="#little-hole" class="outline" />
            <use x="1" y="961" href="#big-hole" class="outline" />
            <use x="1" y="1081" href="#little-hole" class="outline" />
            <use x="1" y="1081" href="#big-hole" class="outline" />
          </svg>
          <g class="caption">
            <text x="80" y="70">  B2  </text>
          </g>
        </svg>
        <svg x="1350" y="1420" class="note-fingering">
          <svg class="fingering" x="30" y="70" width="135" height="1270">
            <use x="1" y="1" href="#pad" class="outline" />
            <use x="1" y="1" href="#octave" />
            <use x="1" y="121" href="#horizontal-line" />
            <use x="1" y="241" href="#pad" />
            <use x="1" y="361" href="#pad" class="outline" />
            <use x="1" y="481" href="#pad" class="outline" />
            <use x="1" y="601" href="#horizontal-line" />
            <use x="1" y="721" href="#pad" />
            <use x="1" y="841" href="#pad" />
            <use x="1" y="961" href="#little-hole" class="outline" />
            <use x="1" y="961" href="#big-hole" class="outline" />
            <use x="1" y="1081" href="#little-hole" class="outline" />
            <use x="1" y="1081" href="#big-hole" class="outline" />
          </svg>
          <g class="caption">
            <text x="80" y="70">  C3  </text>
          </g>
        </svg>
        <svg x="1485" y="1420" class="note-fingering">
          <svg class="fingering" x="30" y="70" width="135" height="1270">
            <use x="1" y="1" href="#pad" class="outline" />
            <use x="1" y="1" href="#octave" />
            <use x="1" y="121" href="#horizontal-line" />
            <use x="1" y="241" href="#pad" />
            <use x="1" y="361" href="#pad" class="outline" />
            <use x="1" y="481" href="#pad" />
            <use x="1" y="601" href="#horizontal-line" />
            <use x="1" y="721" href="#pad" />
            <use x="1" y="841" href="#pad" class="outline" />
            <use x="1" y="961" href="#little-hole" />
            <use x="1" y="961" href="#big-hole" />
            <use x="1" y="1081" href="#little-hole" class="outline" />
            <use x="1" y="1081" href="#big-hole" class="outline" />
          </svg>
          <g class="caption">
            <text x="80" y="70">C♯/D♭3</text>
          </g>
        </svg>
        <svg x="1620" y="1420" class="note-fingering">
          <svg class="fingering" x="30" y="70" width="135" height="1270">
            <use x="1" y="1" href="#pad" class="outline" />
            <use x="1" y="1" href="#octave" />
            <use x="1" y="121" href="#horizontal-line" />
            <use x="1" y="241" href="#pad" />
            <use x="1" y="361" href="#pad" class="outline" />
            <use x="1" y="481" href="#pad" />
            <use x="1" y="601" href="#horizontal-line" />
            <use x="1" y="721" href="#pad" />
            <use x="1" y="841" href="#pad" class="outline" />
            <use x="1" y="961" href="#little-hole" />
            <use x="1" y="961" href="#big-hole" />
            <use x="1" y="1081" href="#little-hole" class="outline" />
            <use x="1" y="1081" href="#big-hole" class="outline" />
          </svg>
          <g class="caption">
            <text x="80" y="70">  D3  </text>
          </g>
        </svg>
        <rect y="1340" width="1960" height="3" class="large-separator" />
      </svg>
    </svg>
  </svg>
</svg>
