<?xml version='1.0' encoding='utf-8'?>
<svg viewBox="0 0 2970 3735" xmlns="http://www.w3.org/2000/svg">
  <defs>
    <svg id="copyleft">
      <circle cx="5" cy="5" r="4.49" fill="none" stroke="#000" stroke-width="1" />
      <path d="M 2.23,4.37 H 3.57 a 1.53,1.53 0 1 1 0,1.28 H 2.23 a 2.81,2.81 0 1 0 0-1.28 z" />
    </svg>
    <circle cx="50" cy="50" r="50" id="pad" />
    <circle cx="80" cy="55" r="20" id="little-hole" />
    <circle cx="30" cy="30" r="30" id="big-hole" />
    <rect x="0" y="50" width="120" height="1" style="fill: black;" id="horizontal-line" />
    <path d="  M 0,50   A 50,50 0 0 0 100,50   Z  " fill="black" id="octave" />
  </defs>
  <style>
    .outline { fill: white; stroke: black; stroke-width: 1.5; }
    .caption { fill: black; font-size: 40px; font-family: monospace; text-anchor: middle; }
    .page_background { fill: pink; }
    .body_background { fill: lightgreen; }
    .charts_background { fill: lightblue; }
    .note-fingering_background { fill: lightgray; }
    .fingering_background { fill: orange; }
  </style>
  <svg class="body" x="30" y="30" width="2850" height="3615">
    <rect width="100%" height="100%" class="body_background" />
    <svg class="page" x="30" y="30" width="2910" height="3675">
      <rect width="100%" height="100%" class="page_background" />
      <svg>
        <text font-size="60px" font-family="monospace" text-anchor="middle" x="1000" y="100">
          Fingering chart for the Baroque family of recorders
        </text>
        <text font-size="30px" font-family="monospace" text-anchor="middle" x="1000" y="170">
          Copyleft <tspan fill="transparent">©</tspan> 2026, Tom Ritchford. No rights reserved.
        </text>
        <use href="#copyleft" x="232" y="48" transform="scale(3, 3)" />
      </svg>
      <svg class="charts" x="30" y="255" width="2790" height="3330">
        <rect width="100%" height="100%" class="charts_background" />
        <svg x="0" y="0" class="note-fingering">
          <rect width="100%" height="100%" class="note-fingering_background" />
          <svg y="80" class="fingering" x="30" width="135" height="1300">
            <rect width="100%" height="100%" class="fingering_background" />
            <use x="1" y="1" href="#pad" />
            <use x="1" y="121" href="#horizontal-line" />
            <use x="1" y="241" href="#pad" />
            <use x="1" y="361" href="#pad" />
            <use x="1" y="481" href="#pad" />
            <use x="1" y="601" href="#horizontal-line" />
            <use x="1" y="721" href="#pad" />
            <use x="1" y="841" href="#pad" />
            <use x="1" y="961" href="#little-hole" />
            <use x="1" y="961" href="#big-hole" />
            <use x="1" y="1081" href="#little-hole" />
            <use x="1" y="1081" href="#big-hole" />
          </svg>
          <text x="80" y="45" class="caption">  C1  </text>
        </svg>
        <svg x="135" y="0" class="note-fingering">
          <rect width="100%" height="100%" class="note-fingering_background" />
          <svg y="80" class="fingering" x="30" width="135" height="1300">
            <rect width="100%" height="100%" class="fingering_background" />
            <use x="1" y="1" href="#pad" />
            <use x="1" y="121" href="#horizontal-line" />
            <use x="1" y="241" href="#pad" />
            <use x="1" y="361" href="#pad" />
            <use x="1" y="481" href="#pad" />
            <use x="1" y="601" href="#horizontal-line" />
            <use x="1" y="721" href="#pad" />
            <use x="1" y="841" href="#pad" />
            <use x="1" y="961" href="#little-hole" />
            <use x="1" y="961" href="#big-hole" />
            <use x="1" y="1081" href="#little-hole" class="outline" />
            <use x="1" y="1081" href="#big-hole" />
          </svg>
          <text x="80" y="45" class="caption">C♯/D♭1</text>
        </svg>
        <svg x="270" y="0" class="note-fingering">
          <rect width="100%" height="100%" class="note-fingering_background" />
          <svg y="80" class="fingering" x="30" width="135" height="1300">
            <rect width="100%" height="100%" class="fingering_background" />
            <use x="1" y="1" href="#pad" />
            <use x="1" y="121" href="#horizontal-line" />
            <use x="1" y="241" href="#pad" />
            <use x="1" y="361" href="#pad" />
            <use x="1" y="481" href="#pad" />
            <use x="1" y="601" href="#horizontal-line" />
            <use x="1" y="721" href="#pad" />
            <use x="1" y="841" href="#pad" />
            <use x="1" y="961" href="#little-hole" />
            <use x="1" y="961" href="#big-hole" />
            <use x="1" y="1081" href="#little-hole" class="outline" />
            <use x="1" y="1081" href="#big-hole" class="outline" />
          </svg>
          <text x="80" y="45" class="caption">  D1  </text>
        </svg>
        <svg x="405" y="0" class="note-fingering">
          <rect width="100%" height="100%" class="note-fingering_background" />
          <svg y="80" class="fingering" x="30" width="135" height="1300">
            <rect width="100%" height="100%" class="fingering_background" />
            <use x="1" y="1" href="#pad" />
            <use x="1" y="121" href="#horizontal-line" />
            <use x="1" y="241" href="#pad" />
            <use x="1" y="361" href="#pad" />
            <use x="1" y="481" href="#pad" />
            <use x="1" y="601" href="#horizontal-line" />
            <use x="1" y="721" href="#pad" />
            <use x="1" y="841" href="#pad" />
            <use x="1" y="961" href="#little-hole" class="outline" />
            <use x="1" y="961" href="#big-hole" />
            <use x="1" y="1081" href="#little-hole" class="outline" />
            <use x="1" y="1081" href="#big-hole" class="outline" />
          </svg>
          <text x="80" y="45" class="caption">D♯/E♭1</text>
        </svg>
        <svg x="540" y="0" class="note-fingering">
          <rect width="100%" height="100%" class="note-fingering_background" />
          <svg y="80" class="fingering" x="30" width="135" height="1300">
            <rect width="100%" height="100%" class="fingering_background" />
            <use x="1" y="1" href="#pad" />
            <use x="1" y="121" href="#horizontal-line" />
            <use x="1" y="241" href="#pad" />
            <use x="1" y="361" href="#pad" />
            <use x="1" y="481" href="#pad" />
            <use x="1" y="601" href="#horizontal-line" />
            <use x="1" y="721" href="#pad" />
            <use x="1" y="841" href="#pad" />
            <use x="1" y="961" href="#little-hole" class="outline" />
            <use x="1" y="961" href="#big-hole" class="outline" />
            <use x="1" y="1081" href="#little-hole" class="outline" />
            <use x="1" y="1081" href="#big-hole" class="outline" />
          </svg>
          <text x="80" y="45" class="caption">  E1  </text>
        </svg>
        <svg x="675" y="0" class="note-fingering">
          <rect width="100%" height="100%" class="note-fingering_background" />
          <svg y="80" class="fingering" x="30" width="135" height="1300">
            <rect width="100%" height="100%" class="fingering_background" />
            <use x="1" y="1" href="#pad" />
            <use x="1" y="121" href="#horizontal-line" />
            <use x="1" y="241" href="#pad" />
            <use x="1" y="361" href="#pad" />
            <use x="1" y="481" href="#pad" />
            <use x="1" y="601" href="#horizontal-line" />
            <use x="1" y="721" href="#pad" />
            <use x="1" y="841" href="#pad" class="outline" />
            <use x="1" y="961" href="#little-hole" />
            <use x="1" y="961" href="#big-hole" />
            <use x="1" y="1081" href="#little-hole" />
            <use x="1" y="1081" href="#big-hole" />
          </svg>
          <text x="80" y="45" class="caption">  F1  </text>
        </svg>
        <svg x="810" y="0" class="note-fingering">
          <rect width="100%" height="100%" class="note-fingering_background" />
          <svg y="80" class="fingering" x="30" width="135" height="1300">
            <rect width="100%" height="100%" class="fingering_background" />
            <use x="1" y="1" href="#pad" />
            <use x="1" y="121" href="#horizontal-line" />
            <use x="1" y="241" href="#pad" />
            <use x="1" y="361" href="#pad" />
            <use x="1" y="481" href="#pad" />
            <use x="1" y="601" href="#horizontal-line" />
            <use x="1" y="721" href="#pad" class="outline" />
            <use x="1" y="841" href="#pad" />
            <use x="1" y="961" href="#little-hole" />
            <use x="1" y="961" href="#big-hole" />
            <use x="1" y="1081" href="#little-hole" class="outline" />
            <use x="1" y="1081" href="#big-hole" class="outline" />
          </svg>
          <text x="80" y="45" class="caption">F♯/G♭1</text>
        </svg>
        <svg x="945" y="0" class="note-fingering">
          <rect width="100%" height="100%" class="note-fingering_background" />
          <svg y="80" class="fingering" x="30" width="135" height="1300">
            <rect width="100%" height="100%" class="fingering_background" />
            <use x="1" y="1" href="#pad" />
            <use x="1" y="121" href="#horizontal-line" />
            <use x="1" y="241" href="#pad" />
            <use x="1" y="361" href="#pad" />
            <use x="1" y="481" href="#pad" />
            <use x="1" y="601" href="#horizontal-line" />
            <use x="1" y="721" href="#pad" class="outline" />
            <use x="1" y="841" href="#pad" class="outline" />
            <use x="1" y="961" href="#little-hole" class="outline" />
            <use x="1" y="961" href="#big-hole" class="outline" />
            <use x="1" y="1081" href="#little-hole" class="outline" />
            <use x="1" y="1081" href="#big-hole" class="outline" />
          </svg>
          <text x="80" y="45" class="caption">  G1  </text>
        </svg>
        <svg x="1080" y="0" class="note-fingering">
          <rect width="100%" height="100%" class="note-fingering_background" />
          <svg y="80" class="fingering" x="30" width="135" height="1300">
            <rect width="100%" height="100%" class="fingering_background" />
            <use x="1" y="1" href="#pad" />
            <use x="1" y="121" href="#horizontal-line" />
            <use x="1" y="241" href="#pad" />
            <use x="1" y="361" href="#pad" />
            <use x="1" y="481" href="#pad" class="outline" />
            <use x="1" y="601" href="#horizontal-line" />
            <use x="1" y="721" href="#pad" />
            <use x="1" y="841" href="#pad" />
            <use x="1" y="961" href="#little-hole" class="outline" />
            <use x="1" y="961" href="#big-hole" />
            <use x="1" y="1081" href="#little-hole" class="outline" />
            <use x="1" y="1081" href="#big-hole" class="outline" />
          </svg>
          <text x="80" y="45" class="caption">G♯/A♭1</text>
        </svg>
        <svg x="1215" y="0" class="note-fingering">
          <rect width="100%" height="100%" class="note-fingering_background" />
          <svg y="80" class="fingering" x="30" width="135" height="1300">
            <rect width="100%" height="100%" class="fingering_background" />
            <use x="1" y="1" href="#pad" />
            <use x="1" y="121" href="#horizontal-line" />
            <use x="1" y="241" href="#pad" />
            <use x="1" y="361" href="#pad" />
            <use x="1" y="481" href="#pad" class="outline" />
            <use x="1" y="601" href="#horizontal-line" />
            <use x="1" y="721" href="#pad" class="outline" />
            <use x="1" y="841" href="#pad" class="outline" />
            <use x="1" y="961" href="#little-hole" class="outline" />
            <use x="1" y="961" href="#big-hole" class="outline" />
            <use x="1" y="1081" href="#little-hole" class="outline" />
            <use x="1" y="1081" href="#big-hole" class="outline" />
          </svg>
          <text x="80" y="45" class="caption">  A1  </text>
        </svg>
        <svg x="1350" y="0" class="note-fingering">
          <rect width="100%" height="100%" class="note-fingering_background" />
          <svg y="80" class="fingering" x="30" width="135" height="1300">
            <rect width="100%" height="100%" class="fingering_background" />
            <use x="1" y="1" href="#pad" />
            <use x="1" y="121" href="#horizontal-line" />
            <use x="1" y="241" href="#pad" />
            <use x="1" y="361" href="#pad" />
            <use x="1" y="481" href="#pad" class="outline" />
            <use x="1" y="601" href="#horizontal-line" />
            <use x="1" y="721" href="#pad" />
            <use x="1" y="841" href="#pad" class="outline" />
            <use x="1" y="961" href="#little-hole" class="outline" />
            <use x="1" y="961" href="#big-hole" class="outline" />
            <use x="1" y="1081" href="#little-hole" class="outline" />
            <use x="1" y="1081" href="#big-hole" class="outline" />
          </svg>
          <text x="80" y="45" class="caption">A♯/B♭1</text>
        </svg>
        <svg x="1485" y="0" class="note-fingering">
          <rect width="100%" height="100%" class="note-fingering_background" />
          <svg y="80" class="fingering" x="30" width="135" height="1300">
            <rect width="100%" height="100%" class="fingering_background" />
            <use x="1" y="1" href="#pad" />
            <use x="1" y="121" href="#horizontal-line" />
            <use x="1" y="241" href="#pad" />
            <use x="1" y="361" href="#pad" class="outline" />
            <use x="1" y="481" href="#pad" class="outline" />
            <use x="1" y="601" href="#horizontal-line" />
            <use x="1" y="721" href="#pad" class="outline" />
            <use x="1" y="841" href="#pad" class="outline" />
            <use x="1" y="961" href="#little-hole" class="outline" />
            <use x="1" y="961" href="#big-hole" class="outline" />
            <use x="1" y="1081" href="#little-hole" class="outline" />
            <use x="1" y="1081" href="#big-hole" class="outline" />
          </svg>
          <text x="80" y="45" class="caption">  B1  </text>
        </svg>
        <svg x="1620" y="0" class="note-fingering">
          <rect width="100%" height="100%" class="note-fingering_background" />
          <svg y="80" class="fingering" x="30" width="135" height="1300">
            <rect width="100%" height="100%" class="fingering_background" />
            <use x="1" y="1" href="#pad" />
            <use x="1" y="121" href="#horizontal-line" />
            <use x="1" y="241" href="#pad" class="outline" />
            <use x="1" y="361" href="#pad" />
            <use x="1" y="481" href="#pad" class="outline" />
            <use x="1" y="601" href="#horizontal-line" />
            <use x="1" y="721" href="#pad" class="outline" />
            <use x="1" y="841" href="#pad" class="outline" />
            <use x="1" y="961" href="#little-hole" class="outline" />
            <use x="1" y="961" href="#big-hole" class="outline" />
            <use x="1" y="1081" href="#little-hole" class="outline" />
            <use x="1" y="1081" href="#big-hole" class="outline" />
          </svg>
          <text x="80" y="45" class="caption">  C2  </text>
        </svg>
        <svg x="1755" y="0" class="note-fingering">
          <rect width="100%" height="100%" class="note-fingering_background" />
          <svg y="80" class="fingering" x="30" width="135" height="1300">
            <rect width="100%" height="100%" class="fingering_background" />
            <use x="1" y="1" href="#pad" class="outline" />
            <use x="1" y="121" href="#horizontal-line" />
            <use x="1" y="241" href="#pad" />
            <use x="1" y="361" href="#pad" />
            <use x="1" y="481" href="#pad" class="outline" />
            <use x="1" y="601" href="#horizontal-line" />
            <use x="1" y="721" href="#pad" class="outline" />
            <use x="1" y="841" href="#pad" class="outline" />
            <use x="1" y="961" href="#little-hole" class="outline" />
            <use x="1" y="961" href="#big-hole" class="outline" />
            <use x="1" y="1081" href="#little-hole" class="outline" />
            <use x="1" y="1081" href="#big-hole" class="outline" />
          </svg>
          <text x="80" y="45" class="caption">C♯/D♭2</text>
        </svg>
        <svg x="0" y="1450" class="note-fingering">
          <rect width="100%" height="100%" class="note-fingering_background" />
          <svg y="80" class="fingering" x="30" width="135" height="1300">
            <rect width="100%" height="100%" class="fingering_background" />
            <use x="1" y="1" href="#pad" class="outline" />
            <use x="1" y="121" href="#horizontal-line" />
            <use x="1" y="241" href="#pad" class="outline" />
            <use x="1" y="361" href="#pad" />
            <use x="1" y="481" href="#pad" class="outline" />
            <use x="1" y="601" href="#horizontal-line" />
            <use x="1" y="721" href="#pad" class="outline" />
            <use x="1" y="841" href="#pad" class="outline" />
            <use x="1" y="961" href="#little-hole" class="outline" />
            <use x="1" y="961" href="#big-hole" class="outline" />
            <use x="1" y="1081" href="#little-hole" class="outline" />
            <use x="1" y="1081" href="#big-hole" class="outline" />
          </svg>
          <text x="80" y="45" class="caption">  D2  </text>
        </svg>
        <svg x="135" y="1450" class="note-fingering">
          <rect width="100%" height="100%" class="note-fingering_background" />
          <svg y="80" class="fingering" x="30" width="135" height="1300">
            <rect width="100%" height="100%" class="fingering_background" />
            <use x="1" y="1" href="#pad" class="outline" />
            <use x="1" y="121" href="#horizontal-line" />
            <use x="1" y="241" href="#pad" class="outline" />
            <use x="1" y="361" href="#pad" />
            <use x="1" y="481" href="#pad" />
            <use x="1" y="601" href="#horizontal-line" />
            <use x="1" y="721" href="#pad" />
            <use x="1" y="841" href="#pad" />
            <use x="1" y="961" href="#little-hole" />
            <use x="1" y="961" href="#big-hole" />
            <use x="1" y="1081" href="#little-hole" class="outline" />
            <use x="1" y="1081" href="#big-hole" class="outline" />
          </svg>
          <text x="80" y="45" class="caption">D♯/E♭2</text>
        </svg>
        <svg x="270" y="1450" class="note-fingering">
          <rect width="100%" height="100%" class="note-fingering_background" />
          <svg y="80" class="fingering" x="30" width="135" height="1300">
            <rect width="100%" height="100%" class="fingering_background" />
            <use x="1" y="1" href="#pad" class="outline" />
            <use x="1" y="1" href="#octave" />
            <use x="1" y="121" href="#horizontal-line" />
            <use x="1" y="241" href="#pad" />
            <use x="1" y="361" href="#pad" />
            <use x="1" y="481" href="#pad" />
            <use x="1" y="601" href="#horizontal-line" />
            <use x="1" y="721" href="#pad" />
            <use x="1" y="841" href="#pad" />
            <use x="1" y="961" href="#little-hole" class="outline" />
            <use x="1" y="961" href="#big-hole" class="outline" />
            <use x="1" y="1081" href="#little-hole" class="outline" />
            <use x="1" y="1081" href="#big-hole" class="outline" />
          </svg>
          <text x="80" y="45" class="caption">  E2  </text>
        </svg>
        <svg x="405" y="1450" class="note-fingering">
          <rect width="100%" height="100%" class="note-fingering_background" />
          <svg y="80" class="fingering" x="30" width="135" height="1300">
            <rect width="100%" height="100%" class="fingering_background" />
            <use x="1" y="1" href="#pad" class="outline" />
            <use x="1" y="1" href="#octave" />
            <use x="1" y="121" href="#horizontal-line" />
            <use x="1" y="241" href="#pad" />
            <use x="1" y="361" href="#pad" />
            <use x="1" y="481" href="#pad" />
            <use x="1" y="601" href="#horizontal-line" />
            <use x="1" y="721" href="#pad" />
            <use x="1" y="841" href="#pad" class="outline" />
            <use x="1" y="961" href="#little-hole" />
            <use x="1" y="961" href="#big-hole" />
            <use x="1" y="1081" href="#little-hole" class="outline" />
            <use x="1" y="1081" href="#big-hole" class="outline" />
          </svg>
          <text x="80" y="45" class="caption">  F2  </text>
        </svg>
        <svg x="540" y="1450" class="note-fingering">
          <rect width="100%" height="100%" class="note-fingering_background" />
          <svg y="80" class="fingering" x="30" width="135" height="1300">
            <rect width="100%" height="100%" class="fingering_background" />
            <use x="1" y="1" href="#pad" class="outline" />
            <use x="1" y="1" href="#octave" />
            <use x="1" y="121" href="#horizontal-line" />
            <use x="1" y="241" href="#pad" />
            <use x="1" y="361" href="#pad" />
            <use x="1" y="481" href="#pad" />
            <use x="1" y="601" href="#horizontal-line" />
            <use x="1" y="721" href="#pad" class="outline" />
            <use x="1" y="841" href="#pad" />
            <use x="1" y="961" href="#little-hole" class="outline" />
            <use x="1" y="961" href="#big-hole" class="outline" />
            <use x="1" y="1081" href="#little-hole" class="outline" />
            <use x="1" y="1081" href="#big-hole" class="outline" />
          </svg>
          <text x="80" y="45" class="caption">F♯/G♭2</text>
        </svg>
        <svg x="675" y="1450" class="note-fingering">
          <rect width="100%" height="100%" class="note-fingering_background" />
          <svg y="80" class="fingering" x="30" width="135" height="1300">
            <rect width="100%" height="100%" class="fingering_background" />
            <use x="1" y="1" href="#pad" class="outline" />
            <use x="1" y="1" href="#octave" />
            <use x="1" y="121" href="#horizontal-line" />
            <use x="1" y="241" href="#pad" />
            <use x="1" y="361" href="#pad" />
            <use x="1" y="481" href="#pad" />
            <use x="1" y="601" href="#horizontal-line" />
            <use x="1" y="721" href="#pad" class="outline" />
            <use x="1" y="841" href="#pad" class="outline" />
            <use x="1" y="961" href="#little-hole" class="outline" />
            <use x="1" y="961" href="#big-hole" class="outline" />
            <use x="1" y="1081" href="#little-hole" class="outline" />
            <use x="1" y="1081" href="#big-hole" class="outline" />
          </svg>
          <text x="80" y="45" class="caption">  G2  </text>
        </svg>
        <svg x="810" y="1450" class="note-fingering">
          <rect width="100%" height="100%" class="note-fingering_background" />
          <svg y="80" class="fingering" x="30" width="135" height="1300">
            <rect width="100%" height="100%" class="fingering_background" />
            <use x="1" y="1" href="#pad" class="outline" />
            <use x="1" y="1" href="#octave" />
            <use x="1" y="121" href="#horizontal-line" />
            <use x="1" y="241" href="#pad" />
            <use x="1" y="361" href="#pad" />
            <use x="1" y="481" href="#pad" class="outline" />
            <use x="1" y="601" href="#horizontal-line" />
            <use x="1" y="721" href="#pad" />
            <use x="1" y="841" href="#pad" class="outline" />
            <use x="1" y="961" href="#little-hole" class="outline" />
            <use x="1" y="961" href="#big-hole" class="outline" />
            <use x="1" y="1081" href="#little-hole" class="outline" />
            <use x="1" y="1081" href="#big-hole" class="outline" />
          </svg>
          <text x="80" y="45" class="caption">G♯/A♭2</text>
        </svg>
        <svg x="945" y="1450" class="note-fingering">
          <rect width="100%" height="100%" class="note-fingering_background" />
          <svg y="80" class="fingering" x="30" width="135" height="1300">
            <rect width="100%" height="100%" class="fingering_background" />
            <use x="1" y="1" href="#pad" class="outline" />
            <use x="1" y="1" href="#octave" />
            <use x="1" y="121" href="#horizontal-line" />
            <use x="1" y="241" href="#pad" />
            <use x="1" y="361" href="#pad" />
            <use x="1" y="481" href="#pad" class="outline" />
            <use x="1" y="601" href="#horizontal-line" />
            <use x="1" y="721" href="#pad" class="outline" />
            <use x="1" y="841" href="#pad" class="outline" />
            <use x="1" y="961" href="#little-hole" class="outline" />
            <use x="1" y="961" href="#big-hole" class="outline" />
            <use x="1" y="1081" href="#little-hole" class="outline" />
            <use x="1" y="1081" href="#big-hole" class="outline" />
          </svg>
          <text x="80" y="45" class="caption">  A2  </text>
        </svg>
        <svg x="1080" y="1450" class="note-fingering">
          <rect width="100%" height="100%" class="note-fingering_background" />
          <svg y="80" class="fingering" x="30" width="135" height="1300">
            <rect width="100%" height="100%" class="fingering_background" />
            <use x="1" y="1" href="#pad" class="outline" />
            <use x="1" y="1" href="#octave" />
            <use x="1" y="121" href="#horizontal-line" />
            <use x="1" y="241" href="#pad" />
            <use x="1" y="361" href="#pad" />
            <use x="1" y="481" href="#pad" class="outline" />
            <use x="1" y="601" href="#horizontal-line" />
            <use x="1" y="721" href="#pad" class="outline" />
            <use x="1" y="841" href="#pad" />
            <use x="1" y="961" href="#little-hole" />
            <use x="1" y="961" href="#big-hole" />
            <use x="1" y="1081" href="#little-hole" class="outline" />
            <use x="1" y="1081" href="#big-hole" />
          </svg>
          <text x="80" y="45" class="caption">A♯/B♭2</text>
        </svg>
        <svg x="1215" y="1450" class="note-fingering">
          <rect width="100%" height="100%" class="note-fingering_background" />
          <svg y="80" class="fingering" x="30" width="135" height="1300">
            <rect width="100%" height="100%" class="fingering_background" />
            <use x="1" y="1" href="#pad" class="outline" />
            <use x="1" y="1" href="#octave" />
            <use x="1" y="121" href="#horizontal-line" />
            <use x="1" y="241" href="#pad" />
            <use x="1" y="361" href="#pad" />
            <use x="1" y="481" href="#pad" class="outline" />
            <use x="1" y="601" href="#horizontal-line" />
            <use x="1" y="721" href="#pad" />
            <use x="1" y="841" href="#pad" />
            <use x="1" y="961" href="#little-hole" class="outline" />
            <use x="1" y="961" href="#big-hole" class="outline" />
            <use x="1" y="1081" href="#little-hole" class="outline" />
            <use x="1" y="1081" href="#big-hole" class="outline" />
          </svg>
          <text x="80" y="45" class="caption">  B2  </text>
        </svg>
        <svg x="1350" y="1450" class="note-fingering">
          <rect width="100%" height="100%" class="note-fingering_background" />
          <svg y="80" class="fingering" x="30" width="135" height="1300">
            <rect width="100%" height="100%" class="fingering_background" />
            <use x="1" y="1" href="#pad" class="outline" />
            <use x="1" y="1" href="#octave" />
            <use x="1" y="121" href="#horizontal-line" />
            <use x="1" y="241" href="#pad" />
            <use x="1" y="361" href="#pad" class="outline" />
            <use x="1" y="481" href="#pad" class="outline" />
            <use x="1" y="601" href="#horizontal-line" />
            <use x="1" y="721" href="#pad" />
            <use x="1" y="841" href="#pad" />
            <use x="1" y="961" href="#little-hole" class="outline" />
            <use x="1" y="961" href="#big-hole" class="outline" />
            <use x="1" y="1081" href="#little-hole" class="outline" />
            <use x="1" y="1081" href="#big-hole" class="outline" />
          </svg>
          <text x="80" y="45" class="caption">  C3  </text>
        </svg>
        <svg x="1485" y="1450" class="note-fingering">
          <rect width="100%" height="100%" class="note-fingering_background" />
          <svg y="80" class="fingering" x="30" width="135" height="1300">
            <rect width="100%" height="100%" class="fingering_background" />
            <use x="1" y="1" href="#pad" class="outline" />
            <use x="1" y="1" href="#octave" />
            <use x="1" y="121" href="#horizontal-line" />
            <use x="1" y="241" href="#pad" />
            <use x="1" y="361" href="#pad" class="outline" />
            <use x="1" y="481" href="#pad" />
            <use x="1" y="601" href="#horizontal-line" />
            <use x="1" y="721" href="#pad" />
            <use x="1" y="841" href="#pad" class="outline" />
            <use x="1" y="961" href="#little-hole" />
            <use x="1" y="961" href="#big-hole" />
            <use x="1" y="1081" href="#little-hole" class="outline" />
            <use x="1" y="1081" href="#big-hole" class="outline" />
          </svg>
          <text x="80" y="45" class="caption">C♯/D♭3</text>
        </svg>
        <svg x="1620" y="1450" class="note-fingering">
          <rect width="100%" height="100%" class="note-fingering_background" />
          <svg y="80" class="fingering" x="30" width="135" height="1300">
            <rect width="100%" height="100%" class="fingering_background" />
            <use x="1" y="1" href="#pad" class="outline" />
            <use x="1" y="1" href="#octave" />
            <use x="1" y="121" href="#horizontal-line" />
            <use x="1" y="241" href="#pad" />
            <use x="1" y="361" href="#pad" class="outline" />
            <use x="1" y="481" href="#pad" />
            <use x="1" y="601" href="#horizontal-line" />
            <use x="1" y="721" href="#pad" />
            <use x="1" y="841" href="#pad" class="outline" />
            <use x="1" y="961" href="#little-hole" />
            <use x="1" y="961" href="#big-hole" />
            <use x="1" y="1081" href="#little-hole" class="outline" />
            <use x="1" y="1081" href="#big-hole" class="outline" />
          </svg>
          <text x="80" y="45" class="caption">  D3  </text>
        </svg>
        <rect y="1370" width="1960" height="3" class="large-separator" />
      </svg>
    </svg>
  </svg>
</svg>
